<svg xmlns="http://www.w3.org/2000/svg" width="84" height="24" viewBox="0 0 84 24">
    <g fill="none" fill-rule="evenodd">
        <g>
            <g>
                <path d="M0 0H84V24H0z" transform="translate(-263 -140) translate(263 140)"/>
                <path fill="#FF3478" fill-rule="nonzero" d="M68.412 4.856V17.19c-.012 2.258-.265 6.53-5.838 6.53v-3.145c2.526-.212 2.709-1.33 2.709-4.594V4.856h3.129zm-53.918 0L8.96 17.457v.005h-.004L6.21 23.717H2.734l2.751-6.26L0 4.857h3.577l3.654 8.63 3.686-8.63h3.577zm35.862-.103c1.168-.004 2.317.298 3.33.877 1.012.558 1.853 1.38 2.431 2.376.586 1.002.872 2.084.872 3.245.004 1.15-.298 2.281-.876 3.278-.568.996-1.396 1.82-2.398 2.385-1.02.575-2.175.872-3.348.86-1.796 0-3.323-.632-4.593-1.896-1.27-1.264-1.905-2.799-1.905-4.604 0-1.935.718-3.548 2.153-4.836 1.255-1.125 2.703-1.685 4.334-1.685zm-31.59.487c1.62-.666 3.44-.666 5.06 0 .79.328 1.509.804 2.117 1.403.617.605 1.105 1.328 1.435 2.124.326.791.493 1.633.493 2.5v6.386h-3.04v-1.3s-1.363 1.422-3.534 1.422c-.883 0-1.732-.167-2.53-.501-.791-.329-1.511-.806-2.12-1.407-.612-.608-1.1-1.33-1.434-2.124-.662-1.594-.66-3.384.007-4.976.327-.794.813-1.515 1.428-2.118.606-.604 1.326-1.082 2.119-1.409zm55.87 0c2.459-1.01 5.288-.458 7.179 1.403.615.607 1.103 1.329 1.435 2.124.325.791.49 1.633.49 2.5v6.386h-3.038v-1.3s-1.364 1.422-3.535 1.422c-.88 0-1.733-.167-2.53-.501-.792-.329-1.511-.807-2.12-1.407-.612-.609-1.099-1.33-1.433-2.124-.662-1.594-.66-3.383.005-4.976.329-.794.814-1.514 1.428-2.118.607-.603 1.327-1.082 2.12-1.409zM62.281 0v17.656h-3.12V0h3.12zM36.85 4.742c.623-.003 1.243.098 1.833.298.579.197 1.11.511 1.56.922.454.416.82.952 1.093 1.61.274.657.412 1.445.412 2.347v7.736h-3.118V10.72c0-.3-.013-.6-.042-.898-.019-.147-.042-.293-.07-.439-.232-1.194-1.329-2.016-2.458-1.915 0 0-1.44.053-2.135 1.335l-.1.202c-.074.152-.343.805-.356 2.215v6.436h-3.123V4.873h3.15v1.106c.206-.199.438-.37.689-.51.548-.313 1.145-.53 1.766-.644.309-.056.612-.083.899-.083zm13.558 2.935c-.976 0-1.789.337-2.439 1.008-.648.673-.973 1.53-.973 2.576 0 1.081.32 1.952.962 2.62.641.666 1.454 1 2.439 1 .98 0 1.8-.34 2.452-1.013.655-.677.98-1.545.98-2.606 0-1.06-.32-1.923-.965-2.59-.64-.661-1.46-.995-2.456-.995zM23.794 8.769c-1.013-1.002-2.535-1.3-3.855-.754-1.32.546-2.18 1.83-2.178 3.25-.003.467.09.928.276 1.357.363.843 1.04 1.514 1.89 1.872.876.363 1.863.363 2.74 0 .42-.177.803-.433 1.127-.753.32-.314.576-.69.763-1.117.18-.42.274-.875.274-1.359.003-.936-.37-1.834-1.037-2.496zm53.373-1.024c-1.424-.002-2.71.847-3.259 2.152-.183.424-.276.886-.276 1.368-.003.466.09.928.273 1.357.364.843 1.041 1.514 1.891 1.872.878.363 1.865.363 2.743 0 .42-.178.804-.433 1.129-.753.322-.321.58-.7.76-1.117.18-.42.273-.875.273-1.359 0-.482-.092-.944-.273-1.367-.187-.435-.442-.81-.76-1.129-.32-.316-.7-.567-1.13-.752-.423-.178-.886-.272-1.371-.272z" transform="translate(-263 -140) translate(263 140)"/>
            </g>
        </g>
    </g>
</svg>
