<svg xmlns="http://www.w3.org/2000/svg" width="24" height="24" viewBox="0 0 24 24">
    <g fill="none" fill-rule="evenodd">
        <g fill="#000">
            <path d="M22.258 4.278c.251-.451.938-.327 1.013.183.511 3.497.178 5.802-1.116 6.89l-.056.042-.012.156c-.276 2.573-2.92 5.715-6.067 6.77l-.271.086c-3.65 1.075-8.98.652-11.401-.937-.211-.139-.298-.404-.208-.639.16-.424.286-.78.373-1.058l.033-.107H2.738c-.115 0-.227-.036-.319-.102l-.065-.055C1.116 14.282.5 12.608.5 10.517c0-.296.243-.537.543-.537l6.908-.001 5.208-4.133c.347-.276.848-.043.882.372v.091l-.301 3.67h4.951l-1.098-1.923c-.24-.419.15-.896.594-.79l.089.029 1.864.776zm.12 2.007l-1.522 2.73c-.134.24-.43.342-.686.236l-.849-.354.775 1.356c.189.33-.02.735-.38.795l-.093.008H13.15c-.318 0-.568-.268-.542-.582l.245-3.008-4.371 3.472c-.073.057-.158.095-.249.11l-.091.008h-6.54l.008.124c.104 1.394.547 2.512 1.325 3.372l.034.036h2.24c.267 0 .489.19.535.442l.009.096c0 .31-.14.832-.427 1.624l-.014.033.082.045c2.24 1.144 6.585 1.451 9.714.637l.33-.091c3.002-.884 5.586-4.041 5.586-6.26 0-.183.094-.353.249-.452.87-.556 1.264-2.008 1.105-4.377zM8.398 13.527c.183 0 .337.129.372.3l.008.076v1.686c0 .208-.17.377-.38.377-.184 0-.337-.13-.373-.3l-.008-.077v-1.686c0-.208.17-.376.38-.376zm1.66 0c.183 0 .337.129.372.3l.008.076v1.686c0 .208-.17.377-.38.377-.184 0-.338-.13-.373-.3l-.008-.077v-1.686c0-.208.17-.376.38-.376zM4.95 11.926c.3 0 .543.24.543.538 0 .297-.243.538-.543.538-.3 0-.543-.24-.543-.538 0-.297.243-.538.543-.538z"/>
        </g>
    </g>
</svg>
