<svg xmlns="http://www.w3.org/2000/svg" width="24" height="24" viewBox="0 0 24 24">
    <g fill="none" fill-rule="evenodd">
        <g fill="#000" fill-rule="nonzero">
            <path d="M13.254 2c2.065 0 3.752 1.55 3.855 3.5l.005.14c1.073.61 1.809 1.705 1.88 2.969L19 8.81v12.662c0 .29-.247.527-.552.527-.27 0-.495-.187-.542-.432l-.009-.095V8.81c0-.715-.298-1.364-.782-1.839v6.1c0 1.975-1.623 3.588-3.662 3.686l-.2.005h-2.205c-2.066 0-3.752-1.55-3.856-3.5l-.005-.19V6.715c-.614.45-1.025 1.14-1.078 1.922l-.006.173v12.662c0 .29-.247.527-.551.527-.271 0-.496-.187-.543-.432L5 21.473V8.81c0-1.467.896-2.734 2.193-3.33.11-1.877 1.689-3.38 3.656-3.476L11.048 2h2.206zm-4.2 12.47l-.274.103c.462.637 1.211 1.07 2.068 1.129l.2.007h2.206c.865 0 1.638-.381 2.143-.978-2.136-.924-4.245-1.01-6.342-.262zm4.2-11.415h-2.206c-1.464 0-2.662 1.09-2.752 2.47l-.006.166v7.381c0 .368.08.718.221 1.036 2.375-.948 4.778-.889 7.191.175.165-.3.27-.637.3-.994l.01-.217V5.691c0-1.456-1.235-2.636-2.758-2.636z"/>
        </g>
    </g>
</svg>
