<svg xmlns="http://www.w3.org/2000/svg" width="30" height="30" viewBox="0 0 30 30">
    <g fill="none" fill-rule="evenodd">
        <g fill="#2E2E2E" fill-rule="nonzero">
            <g>
                <g>
                    <g>
                        <path d="M12.365 5.18l-9.534 8.016c-.098.083-.164.198-.186.324L.46 25.907c-.06.335.198.642.538.642h23.318c.34 0 .598-.307.538-.642L22.667 13.52c-.022-.125-.087-.239-.184-.321l-9.412-8.016c-.203-.173-.502-.174-.706-.002zm.349 1.135l8.91 7.588 2.04 11.553H1.648l2.038-11.551 9.028-7.59z" transform="translate(-239 -213) translate(221 203) translate(18 10) translate(2.5 1.25)"/>
                        <path d="M12.148 14.87c.173-.432.758-.457.98-.077l.035.076 4.373 10.93c.112.28-.025.6-.304.71-.257.104-.546-.003-.68-.236l-.031-.068-3.865-9.662-3.864 9.662c-.103.258-.38.393-.64.328l-.071-.023c-.257-.102-.393-.378-.328-.64l.024-.07 4.371-10.93zm5.02-12.886c.278.115.298.489.06.64l-.06.032-4.372 1.823c-.185.076-.399-.011-.476-.197-.069-.165-.007-.352.138-.445l.058-.032 3.565-1.485L12.516.835C12.351.766 12.263.59 12.3.421l.02-.062c.069-.166.244-.254.413-.216l.063.019 4.373 1.822z" transform="translate(-239 -213) translate(221 203) translate(18 10) translate(2.5 1.25)"/>
                        <path d="M12.191 14.792c.155-.128.385-.107.513.047.115.138.11.335 0 .467l-.047.046-6.971 5.797 2.411 3.935c.094.152.062.346-.067.461l-.052.04c-.153.093-.347.06-.463-.068l-.039-.053L4.9 21.261c-.083-.135-.068-.306.03-.424l.048-.046 7.214-6z" transform="translate(-239 -213) translate(221 203) translate(18 10) translate(2.5 1.25)"/>
                        <path d="M12.607 14.839c.115-.138.31-.169.46-.084l.054.037 7.214 5.999c.12.101.162.266.107.41l-.03.06-2.576 4.203c-.105.172-.329.226-.501.12-.152-.093-.212-.28-.15-.442l.03-.059 2.41-3.934-6.97-5.797c-.138-.114-.17-.308-.085-.459l.037-.054zm-6.146 8.613c.203 0 .366.189.366.422 0 .207-.13.38-.299.415l-.066.007H1.725c-.2 0-.364-.19-.364-.422 0-.207.13-.38.3-.415l.064-.007h4.737z" transform="translate(-239 -213) translate(221 203) translate(18 10) translate(2.5 1.25)"/>
                        <path d="M23.95 23.452c.202 0 .365.189.365.422 0 .207-.129.38-.299.415l-.065.007h-5.1c-.202 0-.365-.19-.365-.422 0-.207.129-.38.298-.415l.066-.007h5.1zM12.71.134c.207 0 .38.13.415.299l.007.066v5.1c0 .202-.189.365-.422.365-.207 0-.38-.13-.415-.3l-.007-.065V.5c0-.202.19-.365.422-.365z" transform="translate(-239 -213) translate(221 203) translate(18 10) translate(2.5 1.25)"/>
                    </g>
                </g>
            </g>
        </g>
    </g>
</svg>
