<svg xmlns="http://www.w3.org/2000/svg" width="24" height="24" viewBox="0 0 24 24">
    <g fill="none" fill-rule="evenodd">
        <g fill="#000" fill-rule="nonzero">
            <g>
                <path d="M16.635 14.548v.933h-11.8v-.933h11.8zM15.786.09c.738 0 1.413.402 1.768 1.041l.059.115L20.2 6.708c.428.902.665 1.882.7 2.88l.004.249v3.467h-.933V9.837c0-.866-.176-1.721-.517-2.515l-.097-.215-2.588-5.462c-.166-.35-.506-.583-.888-.618l-.096-.004H5.814c-.387 0-.744.207-.938.537l-.045.085-2.588 5.462c-.371.782-.578 1.63-.61 2.494l-.004.236v3.467H.695V9.837c0-.999.205-1.987.601-2.902l.103-.227 2.588-5.462C4.304.58 4.956.141 5.685.094l.13-.004h9.972-.001z" transform="translate(1 3)"/>
                <path d="M15.786.246H5.814c-.72 0-1.377.416-1.685 1.067L1.54 6.775C1.086 7.733.85 8.778.85 9.837v3.157c0 1.202.975 2.176 2.177 2.176h15.545c1.202 0 2.177-.974 2.177-2.176V9.837c0-1.059-.235-2.105-.69-3.062l-2.587-5.462c-.31-.65-.965-1.066-1.687-1.066h.001zM5.814.868h9.972c.481 0 .918.277 1.124.711l2.588 5.461c.415.874.63 1.829.63 2.797v3.156c0 .86-.697 1.555-1.556 1.555H3.028c-.859 0-1.556-.696-1.556-1.555V9.837c0-.967.216-1.923.63-2.797L4.691 1.58c.206-.434.643-.711 1.123-.711z" transform="translate(1 3)"/>
                <path d="M1.522 6.813l.211-.586 1.814.655c.067.025.137.042.21.05l.107.006h13.973c.085 0 .169-.012.25-.034l.081-.027 1.656-.63.222.58-1.656.631c-.142.054-.29.087-.44.098l-.113.004H3.864c-.135 0-.27-.017-.4-.053l-.128-.04-1.815-.654h.001zM14.22 11.749c.172 0 .311.161.311.36 0 .177-.11.324-.255.354l-.056.006H7.38c-.171 0-.311-.161-.311-.36 0-.176.11-.324.256-.354l.055-.006h6.84zM4.427 8.951c-.773 0-1.4.626-1.4 1.399s.627 1.399 1.4 1.399c.772 0 1.399-.626 1.399-1.399s-.627-1.399-1.4-1.399zm0 .621c.429 0 .777.349.777.778 0 .43-.348.778-.777.778-.43 0-.778-.349-.778-.778 0-.43.348-.778.778-.778zm12.747-.621c-.773 0-1.4.626-1.4 1.399s.627 1.399 1.4 1.399c.773 0 1.4-.626 1.4-1.399s-.627-1.399-1.4-1.399zm0 .621c.43 0 .778.349.778.778 0 .43-.349.778-.778.778-.43 0-.777-.349-.777-.778 0-.43.347-.778.777-.778z" transform="translate(1 3)"/>
                <path d="M1.629 12.993v3.11c0 .402.306.733.697.773l.08.004H3.65c.402 0 .733-.306.773-.699l.004-.079v-1.55h.933v1.552c0 .909-.71 1.652-1.605 1.706l-.105.004H2.406c-.91 0-1.654-.71-1.707-1.606l-.003-.104v-3.11h.933zm18.343 0v3.11c0 .402-.306.733-.698.773l-.08.004h-1.243c-.402 0-.733-.306-.773-.699l-.004-.079V14.56h-.933v1.543c0 .91.71 1.652 1.606 1.706l.104.004h1.244c.91 0 1.653-.71 1.707-1.606l.003-.104v-3.11h-.933zM.435 5.036l.698-1.5c.277-.591.98-.847 1.572-.571l.226.105c.467.218.669.773.45 1.24L2.474 6.26c-.218.467-.773.67-1.24.452l-.226-.106C.415 6.33.16 5.627.436 5.036H.435zm1.262-1.237L.999 5.3c-.131.28-.01.614.27.745l.226.105c.156.072.341.005.414-.15l.91-1.952c.072-.155.005-.34-.151-.413l-.226-.105c-.28-.131-.614-.01-.745.27zm19.482 1.237l-.7-1.5c-.276-.591-.98-.847-1.571-.571l-.226.105c-.467.218-.669.773-.452 1.24l.91 1.951c.219.467.773.67 1.24.452l.226-.106c.592-.276.848-.98.572-1.571zm-1.263-1.237l.698 1.5c.131.28.01.614-.27.745l-.226.105c-.156.072-.341.005-.414-.15l-.91-1.952c-.072-.155-.005-.34.151-.413l.226-.105c.28-.131.614-.01.745.27z" transform="translate(1 3)"/>
            </g>
        </g>
    </g>
</svg>
