<svg xmlns="http://www.w3.org/2000/svg" width="24" height="24" viewBox="0 0 24 24">
    <g fill="none" fill-rule="evenodd">
        <g>
            <path d="M0 0H24V24H0z"/>
            <path fill="#000" fill-rule="nonzero" d="M7.125 13C9.265 13 11 14.735 11 16.875c0 2.14-1.735 3.875-3.875 3.875-2.14 0-3.875-1.735-3.875-3.875C3.25 14.735 4.985 13 7.125 13zm9.75 0c2.14 0 3.875 1.735 3.875 3.875 0 2.14-1.735 3.875-3.875 3.875-2.14 0-3.875-1.735-3.875-3.875C13 14.735 14.735 13 16.875 13zm-9.75 1c-1.588 0-2.875 1.287-2.875 2.875s1.287 2.875 2.875 2.875S10 18.463 10 16.875 8.713 14 7.125 14zm9.75 0C15.287 14 14 15.287 14 16.875s1.287 2.875 2.875 2.875 2.875-1.287 2.875-2.875S18.463 14 16.875 14zM7.125 3.25C9.265 3.25 11 4.985 11 7.125 11 9.265 9.265 11 7.125 11 4.985 11 3.25 9.265 3.25 7.125c0-2.14 1.735-3.875 3.875-3.875zm9.75 0c2.14 0 3.875 1.735 3.875 3.875 0 2.14-1.735 3.875-3.875 3.875C14.735 11 13 9.265 13 7.125c0-2.14 1.735-3.875 3.875-3.875zm-9.75 1c-1.588 0-2.875 1.287-2.875 2.875S5.537 10 7.125 10 10 8.713 10 7.125 8.713 4.25 7.125 4.25zm9.75 0C15.287 4.25 14 5.537 14 7.125S15.287 10 16.875 10s2.875-1.287 2.875-2.875-1.287-2.875-2.875-2.875z"/>
        </g>
    </g>
</svg>
