<svg xmlns="http://www.w3.org/2000/svg" width="24" height="24" viewBox="0 0 24 24">
    <g fill="none" fill-rule="evenodd">
        <g fill="#000" fill-rule="nonzero">
            <path d="M11.212 3c1.764 0 3.393.781 4.473 2.082l.132.168c2.781 0 5.05 2.139 5.177 4.824l.006.239c0 1.914-1.098 3.629-2.785 4.489l-.094.044v4.466c0 .878-.685 1.599-1.56 1.68l-.167.008H7.182c-.954 0-1.727-.756-1.727-1.688v-4.21c-.702-.243-1.344-.639-1.881-1.156-.686-.65-1.183-1.48-1.42-2.405-.033-.124-.062-.25-.087-.378-.007-.036-.01-.07-.01-.106-.026-.166-.043-.335-.051-.505L2 10.312c0-2.516 1.885-4.62 4.373-5l.204-.028.163-.203c.526-.633 1.182-1.143 1.92-1.5.05-.024.1-.048.152-.071l.038-.016c.283-.128.58-.235.89-.318.038-.01.074-.016.11-.018.352-.083.715-.134 1.085-.152zm5.757 15.423H6.606v.89c0 .28.209.511.482.555l.094.007h9.212c.318 0 .576-.252.576-.563l-.001-.889zM11.212 4.125c-.892 0-1.74.25-2.462.696l-.05.03.05-.03-.094.06.044-.03c-1.624 1.047-2.469 3.024-1.952 4.95.08.3-.104.61-.411.693-.307.082-.621-.094-.702-.394-.322-1.203-.22-2.423.217-3.504-1.577.536-2.7 2.003-2.7 3.716 0 1.469.83 2.776 2.088 3.452l.027.015-.027-.015c.05.027.1.052.15.077l-.123-.062c.069.036.138.07.209.102l-.086-.04c.048.023.097.046.147.068l-.061-.028c.709.32 1.515.43 2.33.272.305-.06.601.146.662.458.06.312-.138.613-.443.672-.479.093-.955.114-1.419.07v2.392h10.363l.001-3.639.36-.142c1.51-.597 2.518-2.033 2.518-3.652 0-2.174-1.804-3.937-4.016-3.937l-.204.004-.394.027-.185-.272c-.85-1.246-2.276-2.009-3.837-2.009z"/>
        </g>
    </g>
</svg>
