<svg xmlns="http://www.w3.org/2000/svg" width="24" height="24" viewBox="0 0 24 24">
    <g fill="none" fill-rule="evenodd">
        <g fill="#000" fill-rule="nonzero">
            <path d="M14.294 2c.147 0 .288.061.388.169l3.735 3.984c.205.22.19.566-.036.765l-1.148 1.017C18.97 9.44 20 11.63 20 13.992 20 18.415 16.418 22 12 22s-8-3.585-8-8.008c0-2.308.982-4.453 2.651-5.955l-1.314-1.11c-.238-.202-.254-.565-.033-.786l3.974-3.984c.1-.1.236-.157.377-.157zm2.131 6.65l-2.507 2.22-1.91 1.692-4.533-3.828-.1.088c-1.384 1.24-2.226 2.989-2.303 4.885l-.005.285c0 3.833 3.104 6.94 6.933 6.94 3.83 0 6.933-3.107 6.933-6.94 0-2.047-.891-3.945-2.397-5.249l-.111-.093zm.192-1.598H7.14l4.851 4.098 4.626-4.098zm-2.555-3.984H9.875L6.967 5.984h9.827l-2.732-2.916z"/>
        </g>
    </g>
</svg>
