<svg xmlns="http://www.w3.org/2000/svg" width="24" height="24" viewBox="0 0 24 24">
    <g fill="none" fill-rule="evenodd">
        <g fill="#000" fill-rule="nonzero">
            <path d="M4.462 2.4c.17 0 .31.12.343.28l.007.07.002 2.123c.429.15.736.558.736 1.038s-.307.888-.736 1.038l-.002.897c.04.892.487 1.478 1.385 1.751-.064-.304-.097-.617-.097-.936 0-2.302 1.733-4.216 3.96-4.468l.21-.02.33-.012c.159 0 .316.008.442.022 1.92.084 3.633.521 5.064 1.22l-.068.01c.693-.061.859-.39.52-1.25l-.06-.148c-.3-.698.098-1.172.727-.755.335.222.8.708 1.24 1.3 1.1 1.477 1.755 3.125 1.576 4.513l-.005.031c.748 1.478.947 3.172.469 4.917-.863 3.149-3.367 4.926-7.402 5.315l-.206.018-2.562 1.918c-.306.23-.733.043-.792-.315l-.007-.085v-3.754c0-.369.38-.6.7-.458l.073.04 2.474 1.613c1.958-.723 2.65-1.637 2.29-2.809-.379-1.241-1.745-2.03-4.191-2.314l-.292-.031-.259-.006c-.734-.044-1.432-.264-2.052-.637l-.229-.147-.2-.147-.191-.155c-.54-.467-.958-1.05-1.224-1.7-1.399-.266-2.19-1.037-2.31-2.324l-.013-.182v-.903C3.668 6.815 3.35 6.4 3.35 5.91c0-.489.319-.903.76-1.046l.002-2.115c0-.193.157-.35.35-.35zm6.073 15.641v1.833l1.308-.979-1.308-.854zm.065-12.88l-.167.004-.075.004-.187.017C8.437 5.395 7.1 6.88 7.1 8.661c0 .383.062.756.178 1.107.438.021.938.001 1.5-.06.193-.02.365.118.386.31.021.193-.118.365-.31.386-.447.049-.864.072-1.25.068.149.248.33.477.537.68l.16.149.169.137c.546.42 1.201.67 1.885.716l.23.007h.077l.044.004.015.003.274.029c.307.036.6.08.881.131l-.047.028c1.64-.918 2.214-2.09 1.79-3.6-.052-.187.057-.38.243-.432.186-.052.38.056.431.242.452 1.611-.052 2.957-1.466 3.983 1.558.443 2.591 1.203 3.068 2.297l.073.18.062.186c.288.941.132 1.767-.435 2.469l-.128.148-.038.038.233-.076c1.88-.658 3.11-1.834 3.72-3.533l.087-.258.071-.243c1.18-4.306-2.46-8.31-8.571-8.577-.122-.013-.245-.019-.369-.019zm6.731-.872l.018.068c.162.688.02 1.206-.421 1.497.958.58 1.76 1.291 2.379 2.096-.168-.95-.678-1.999-1.403-2.972-.176-.237-.356-.454-.523-.637l-.05-.052zM10.45 6.361c.414 0 .75.336.75.75s-.336.75-.75.75-.75-.336-.75-.75.336-.75.75-.75zm-6-.85c-.22 0-.4.18-.4.4 0 .221.18.4.4.4.22 0 .4-.179.4-.4 0-.22-.18-.4-.4-.4z"/>
        </g>
    </g>
</svg>
