<svg xmlns="http://www.w3.org/2000/svg" width="39" height="40" viewBox="0 0 39 40">
    <g fill="#2E2E2E">
        <path d="M26.773 10.03c1.311 0 2.375 1.063 2.375 2.375v3.477h1.597c1.727 0 3.139 1.352 3.234 3.055l.005.184v12.337c0 1.79-1.45 3.24-3.239 3.24H7.142c-1.788 0-3.238-1.45-3.238-3.24V19.121c0-1.789 1.45-3.239 3.238-3.239h1.71v-3.477c0-1.257.977-2.286 2.213-2.37l.162-.005zM8.852 17.177h-1.71c-1.073 0-1.943.87-1.943 1.944v12.337c0 1.074.87 1.944 1.943 1.944l1.71-.001V17.177zm17.92-5.852H11.228c-.596 0-1.08.484-1.08 1.08V33.4h4.103v-2.806c0-2.55 2.01-4.632 4.533-4.745l.217-.005c2.623 0 4.75 2.127 4.75 4.75V33.4h4.102V12.405c0-.557-.42-1.015-.962-1.073l-.117-.007zM19 26.708c-2.146 0-3.886 1.74-3.886 3.887V33.4h7.772v-2.806c0-2.08-1.633-3.777-3.686-3.881zm11.745-9.53l-1.597-.001V33.4h1.597c1.023 0 1.86-.788 1.938-1.79l.006-.153V19.121c0-1.073-.87-1.943-1.944-1.943zm-16.11 3.074c.238 0 .431.194.431.432v1.296c0 .238-.193.432-.432.432-.238 0-.431-.194-.431-.432v-1.296c0-.238.193-.432.431-.432zm8.722 0c.239 0 .432.194.432.432v1.296c0 .238-.193.432-.432.432-.238 0-.432-.194-.432-.432v-1.296c0-.238.194-.432.432-.432zm-4.361 0c.238 0 .431.194.431.432v1.296c0 .238-.193.432-.431.432-.239 0-.432-.194-.432-.432v-1.296c0-.238.193-.432.432-.432zm-4.362-5.219c.239 0 .432.194.432.432v1.296c0 .238-.193.432-.432.432-.238 0-.431-.194-.431-.432v-1.296c0-.238.193-.432.431-.432zm8.723 0c.239 0 .432.194.432.432v1.296c0 .238-.193.432-.432.432-.238 0-.432-.194-.432-.432v-1.296c0-.238.194-.432.432-.432zm-4.361 0c.238 0 .431.194.431.432v1.296c0 .238-.193.432-.431.432-.239 0-.432-.194-.432-.432v-1.296c0-.238.193-.432.432-.432z"/>
        <path stroke="#2E2E2E" stroke-linecap="round" stroke-linejoin="round" stroke-width=".5" d="M29.678 8.025l.14.83.743.317-.716.415-.076.845-.582-.574-.79.206.356-.77-.413-.718.802.098.536-.65zm-21.42-.098l.476.694.808-.028-.473.68.287.797-.77-.274-.63.521-.001-.848-.677-.476.768-.25.211-.816zm3.824-4.247l.763 1.11 1.292-.044-.757 1.086.46 1.277-1.231-.438-1.008.834-.003-1.358-1.084-.762 1.23-.4.338-1.305zm13.558 0l.338 1.304 1.229.401-1.083.762-.004 1.358-1.007-.834-1.232.438.46-1.277-.757-1.086 1.292.044.764-1.11zm-6.89-1.788l.723 1.506 1.656.222-1.209 1.153.3 1.643-1.47-.793-1.47.793.3-1.643-1.21-1.153 1.657-.222.723-1.506z"/>
    </g>
</svg>
