<svg xmlns="http://www.w3.org/2000/svg" width="39" height="39" viewBox="0 0 39 39">
    <g fill="none" fill-rule="evenodd">
        <path fill="#ECECEC" d="M4.246 25.614c1.363 0 2.467.908 2.467 2.027H8.87c.821 0 1.493.71 1.493 1.577s-.672 1.577-1.493 1.577H2.158c-.03 0-.06-.002-.09-.004-.021 0-.043.004-.065.004C.898 30.795 0 29.888 0 28.77c0-1.119.898-2.028 2.003-2.028l.034.003c.402-.669 1.239-1.13 2.209-1.13zM31.619 10.5c1.455 0 2.71.654 3.313 1.6.018 0 .034-.003.051-.003 1.658 0 3.004 1.288 3.004 2.873 0 1.586-1.346 2.87-3.004 2.87-.033 0-.066-.004-.099-.006-.044.004-.089.007-.134.007h-4.979c.008-.134.012-.266.012-.397 0-1.957-.54-3.788-1.476-5.352.605-.944 1.86-1.592 3.312-1.592z"/>
        <path fill="#2E2E2E" fill-rule="nonzero" d="M19.015 4.886l.273.003c6.543.14 11.803 5.305 11.803 11.656-.015 3.833-2.292 7.798-6.779 11.907-.372.397-.65.984-.792 1.742l-.167 1.277-.026.164c-.283 1.518-1.661 2.63-3.275 2.615l-.24-.002-1.094-.003-.516.003c-.082 0-.162 0-.24.002-1.616.016-2.996-1.097-3.28-2.615l-.026-.164-.167-1.277c-.142-.758-.42-1.345-.793-1.742-4.492-4.109-6.772-8.074-6.787-11.908 0-6.35 5.266-11.514 11.817-11.655L19 4.886v1.272c-.553 0-1.095.04-1.625.118-3.46 4.842-3.513 12-.106 21.503l.154.425h3.02l.154-.425c3.41-9.509 3.355-16.67-.113-21.512l-.009-.014c-.477-.063-.965-.095-1.46-.095V4.886zm3.022 26.477h-6.064l.018.097c.19.885 1.006 1.527 1.957 1.518l.188-.002v-.003H19.3l.765.005c1.003.01 1.855-.707 1.981-1.667l-.009.052zm.384-2.158H15.59c.058.174.108.356.15.546l.052.25.047.362h6.331L22.22 30l.051-.249c.043-.19.093-.372.15-.546zM16.177 6.518l-.264.073c-4.445 1.28-7.685 5.251-7.685 9.951.014 3.43 2.121 7.096 6.409 11.02.184.195.349.41.493.642h1.375l-.066-.182c-3.311-9.258-3.413-16.434-.262-21.504zm5.486-.043l.063.1c3.173 5.163 2.995 12.495-.489 21.972l.124-.343h1.519c.098-.157.204-.307.32-.447l.172-.195c4.283-3.924 6.388-7.59 6.402-11.02 0-4.852-3.45-8.928-8.111-10.067z"/>
    </g>
</svg>
