<svg xmlns="http://www.w3.org/2000/svg" width="39" height="40" viewBox="0 0 39 40">
    <g fill="none" fill-rule="evenodd">
        <path fill="#2E2E2E" fill-rule="nonzero" d="M10.432 21.727c.276 0 .5.194.5.432l-.001 1.192c.1-.024.203-.037.31-.037h1.799c.723 0 1.31.586 1.31 1.31v.011c0 .157-.028.307-.078.446h10.794c.704 0 1.275.586 1.275 1.31v.895c0 .172-.033.337-.092.488l3.978-.001c.239 0 .432.224.432.5s-.193.5-.432.5H7.773c-.239 0-.432-.224-.432-.5s.193-.5.432-.5H9.93v-5.614c0-.212.178-.388.41-.425zm14.634 4.218h-13.86c-.104 0-.2.038-.275.101v1.584c.075.064.17.102.276.102h13.86c.239 0 .433-.2.433-.446v-.895c0-.247-.194-.446-.434-.446zM13.04 24.178h-1.799c-.12 0-.23.048-.31.126v.65c.08.079.19.127.31.127h1.799c.246 0 .446-.2.446-.446v-.011c0-.247-.2-.446-.446-.446zm12.035-8.566c.699 0 1.266.58 1.266 1.295v3.916c0 .716-.567 1.296-1.266 1.296h-1.786c-.7 0-1.266-.58-1.266-1.296v-3.916c0-.715.567-1.295 1.266-1.295h1.786zm0 .863h-1.786c-.233 0-.422.193-.422.432v3.916c0 .239.189.432.422.432h1.786c.233 0 .422-.193.422-.432v-3.916c0-.239-.19-.432-.422-.432z"/>
        <path fill-rule="nonzero" stroke="#2E2E2E" stroke-linecap="round" stroke-width="1.5" d="M30.875 13.264v17.963c0 1.431-1.044 2.591-2.332 2.591H9.457c-1.288 0-2.332-1.16-2.332-2.59V13.263"/>
        <path stroke="#2E2E2E" stroke-linecap="round" stroke-linejoin="round" stroke-width="1.5" d="M4.318 14.818l13.16-7.741c.94-.553 2.104-.553 3.043 0l13.16 7.741h0"/>
    </g>
</svg>
