<svg xmlns="http://www.w3.org/2000/svg" width="24" height="24" viewBox="0 0 24 24">
    <g fill="none" fill-rule="evenodd">
        <g>
            <g>
                <path d="M0 0H24V24H0z" transform="rotate(90 12 12)"/>
                <path fill="#000" fill-rule="nonzero" d="M12 3c.407 0 .737.323.75.727v.023l.001 1.984c1.084.323 1.874 1.327 1.874 2.516s-.79 2.193-1.874 2.516v9.484c0 .414-.337.75-.75.75-.407 0-.738-.323-.75-.727v-9.507c-1.085-.322-1.876-1.327-1.876-2.516 0-1.19.79-2.194 1.875-2.516V3.75c0-.414.336-.75.75-.75zm6.75 0c.407 0 .737.323.75.727v.023l.001 9.484c1.084.323 1.874 1.327 1.874 2.516s-.79 2.193-1.874 2.516v1.984c0 .414-.337.75-.75.75-.407 0-.738-.323-.75-.727v-2.007c-1.085-.322-1.876-1.327-1.876-2.516 0-1.19.79-2.194 1.875-2.516V3.75c0-.414.336-.75.75-.75zM5.25 3c.406 0 .737.323.75.727v6.507c1.084.322 1.875 1.327 1.875 2.516 0 1.19-.79 2.194-1.875 2.516v4.984c0 .414-.336.75-.75.75-.406 0-.737-.323-.75-.727v-5.007c-1.084-.322-1.875-1.327-1.875-2.516 0-1.19.79-2.194 1.875-2.516V3.75c0-.414.336-.75.75-.75zm13.5 11.625c-.621 0-1.125.504-1.125 1.125s.504 1.125 1.125 1.125 1.125-.504 1.125-1.125-.504-1.125-1.125-1.125zm-13.5-3c-.621 0-1.125.504-1.125 1.125s.504 1.125 1.125 1.125 1.125-.504 1.125-1.125-.504-1.125-1.125-1.125zm6.75-4.5c-.621 0-1.125.504-1.125 1.125S11.38 9.375 12 9.375s1.125-.504 1.125-1.125S12.621 7.125 12 7.125z" transform="rotate(90 12 12)"/>
            </g>
        </g>
    </g>
</svg>
