<svg xmlns="http://www.w3.org/2000/svg" width="38" height="38" viewBox="0 0 38 38">
    <g fill="#2E2E2E">
        <path d="M14.337 6.413l-11.3 9.5c-.116.098-.194.234-.22.384L.226 30.978c-.07.397.235.76.638.76H28.5c.403 0 .708-.363.638-.76l-2.591-14.681c-.026-.149-.103-.283-.218-.381l-11.155-9.5c-.241-.205-.595-.206-.837-.003zm.413 1.344l10.561 8.994 2.417 13.692H1.635l2.416-13.69L14.75 7.758z" transform="translate(4.318 1.727)"/>
        <path d="M14.08 17.896c.205-.511.898-.541 1.16-.09l.043.09 5.182 12.954c.133.332-.029.71-.36.842-.305.122-.647-.004-.805-.281l-.038-.08-4.58-11.451-4.58 11.451c-.122.305-.45.466-.759.388l-.084-.027c-.304-.121-.465-.448-.388-.758l.028-.084 5.181-12.954zM20.03 2.624c.329.137.352.58.07.76l-.07.037-5.182 2.16c-.22.091-.473-.013-.565-.233-.081-.196-.008-.417.164-.528l.069-.037 4.225-1.76-4.225-1.76c-.196-.082-.3-.291-.256-.491l.023-.074c.082-.196.29-.3.49-.256l.075.023 5.182 2.16z" transform="translate(4.318 1.727)"/>
        <path d="M14.131 17.804c.183-.152.456-.127.608.056.136.163.131.397 0 .553l-.056.055-8.262 6.87 2.858 4.664c.111.18.073.41-.08.547l-.062.046c-.181.111-.411.073-.548-.08l-.046-.062-3.054-4.982c-.098-.16-.08-.362.037-.502l.056-.055 8.55-7.11z" transform="translate(4.318 1.727)"/>
        <path d="M14.624 17.86c.136-.163.366-.2.544-.1l.065.044 8.55 7.11c.143.12.192.316.126.486l-.035.071-3.053 4.982c-.125.203-.39.267-.594.142-.18-.11-.251-.333-.177-.524l.034-.07 2.858-4.663-8.262-6.87c-.163-.135-.2-.365-.1-.544l.044-.064zM7.34 28.068c.24 0 .433.224.433.5 0 .246-.153.45-.354.492l-.078.008H1.727c-.238 0-.432-.224-.432-.5 0-.245.153-.45.355-.492l.077-.008h5.614z" transform="translate(4.318 1.727)"/>
        <path d="M28.068 28.068c.239 0 .432.224.432.5 0 .246-.153.45-.354.492l-.078.008h-6.045c-.239 0-.432-.224-.432-.5 0-.245.153-.45.354-.492l.078-.008h6.045zM14.746.432c.245 0 .45.153.492.354l.008.078v6.045c0 .239-.224.432-.5.432-.246 0-.45-.153-.492-.354l-.008-.078V.864c0-.239.224-.432.5-.432z" transform="translate(4.318 1.727)"/>
    </g>
</svg>
