<svg xmlns="http://www.w3.org/2000/svg" width="39" height="40" viewBox="0 0 39 40">
    <path fill="#2E2E2E" d="M26.536 6.61c.846 0 1.532.686 1.532 1.532v2.118c0 .846-.686 1.532-1.532 1.532l-2.65-.001v1.296h4.695c1.386 0 2.51 1.063 2.51 2.375V31.44c0 1.79-1.532 3.24-3.422 3.24H10.331c-1.89 0-3.422-1.45-3.422-3.24V15.462c0-1.312 1.124-2.375 2.51-2.375h4.83V11.79h-2.785c-.846 0-1.532-.685-1.532-1.531V8.142c0-.846.686-1.532 1.532-1.532h15.072zm2.045 7.773H9.42c-.63 0-1.141.483-1.141 1.08v15.976c0 1.074.92 1.944 2.053 1.944l5.214-.001v-1.943c0-1.907 1.547-3.454 3.455-3.454 1.908 0 3.455 1.547 3.455 3.454v1.943h5.214c1.134 0 2.053-.87 2.053-1.943V15.462c0-.596-.51-1.08-1.14-1.08zM19 28.849c-1.43 0-2.59 1.16-2.59 2.59v1.943h5.18v-1.943c0-1.43-1.16-2.59-2.59-2.59zm-5.33-6.296c.277 0 .5.193.5.431v1.728c0 .238-.223.432-.5.432-.276 0-.5-.194-.5-.432v-1.728c0-.238.224-.431.5-.431zm5.398 0c.276 0 .5.193.5.431v1.728c0 .238-.224.432-.5.432s-.5-.194-.5-.432v-1.728c0-.238.224-.431.5-.431zm5.398 0c.276 0 .5.193.5.431v1.728c0 .238-.224.432-.5.432s-.5-.194-.5-.432v-1.728c0-.238.224-.431.5-.431zM13.67 17.676c.277 0 .5.193.5.432v1.727c0 .239-.223.432-.5.432-.276 0-.5-.193-.5-.432v-1.727c0-.239.224-.432.5-.432zm5.398 0c.276 0 .5.193.5.432v1.727c0 .239-.224.432-.5.432s-.5-.193-.5-.432v-1.727c0-.239.224-.432.5-.432zm5.398 0c.276 0 .5.193.5.432v1.727c0 .239-.224.432-.5.432s-.5-.193-.5-.432v-1.727c0-.239.224-.432.5-.432zm-9.217-4.59h7.637v-1.295H15.25v1.296zm11.287-5.18H11.464c-.13 0-.237.105-.237.236v2.118c0 .13.106.236.237.236h15.072c.13 0 .237-.106.237-.236V8.142c0-.13-.106-.237-.237-.237z"/>
</svg>
