<svg xmlns="http://www.w3.org/2000/svg" width="39" height="40" viewBox="0 0 39 40">
    <path fill="#2E2E2E" d="M24.182 7.91c1.43 0 2.59 1.16 2.59 2.59v5.181h4.75c1.432 0 2.592 1.16 2.592 2.592v12.954c0 1.908-1.547 3.455-3.455 3.455H7.341c-1.908 0-3.455-1.547-3.455-3.455V14.818c0-1.43 1.16-2.59 2.591-2.59h4.75V10.5c0-1.43 1.16-2.59 2.591-2.59h10.364zm-12.955 5.613h-4.75c-.715 0-1.295.58-1.295 1.295v16.41c0 1.192.966 2.158 2.159 2.158h3.886V13.523zm20.296 3.454h-4.75v16.41h3.886c1.193 0 2.16-.967 2.16-2.16V18.273c0-.716-.58-1.296-1.296-1.296zm-7.341-7.772H13.818c-.715 0-1.295.58-1.295 1.295v22.886h3.453l.001-4.75c0-1.192.967-2.159 2.16-2.159h1.727c1.192 0 2.159.967 2.159 2.16v4.75h3.454V10.5c0-.715-.58-1.295-1.295-1.295zM19.864 27.34h-1.728c-.715 0-1.295.58-1.295 1.295v4.75h4.317l.001-4.75c0-.715-.58-1.295-1.295-1.295zm-11.66-.432c.239 0 .432.193.432.432v1.727c0 .239-.193.432-.431.432-.239 0-.432-.193-.432-.432v-1.727c0-.239.193-.432.432-.432zm21.591-.864c.239 0 .432.194.432.432v1.728c0 .238-.193.431-.432.431-.238 0-.431-.193-.431-.431v-1.728c0-.238.193-.432.431-.432zm-21.59-4.318c.238 0 .431.194.431.432v1.727c0 .239-.193.432-.431.432-.239 0-.432-.193-.432-.432V22.16c0-.238.193-.432.432-.432zm21.59-.863c.239 0 .432.193.432.431v1.728c0 .238-.193.432-.432.432-.238 0-.431-.194-.431-.432v-1.728c0-.238.193-.431.431-.431zm-7.34 1.727c.238 0 .431.193.431.432 0 .238-.193.432-.431.432h-6.91c-.238 0-.431-.194-.431-.432 0-.239.193-.432.431-.432h6.91zm0-3.455c.238 0 .431.194.431.432 0 .239-.193.432-.431.432h-6.91c-.238 0-.431-.193-.431-.432 0-.238.193-.432.431-.432h6.91zm-14.25-2.59c.238 0 .431.193.431.431v1.728c0 .238-.193.431-.431.431-.239 0-.432-.193-.432-.431v-1.728c0-.238.193-.432.432-.432zm14.25-.864c.238 0 .431.193.431.432 0 .238-.193.431-.431.431h-6.91c-.238 0-.431-.193-.431-.431 0-.239.193-.432.431-.432h6.91zm0-3.455c.238 0 .431.194.431.432 0 .239-.193.432-.431.432h-6.91c-.238 0-.431-.193-.431-.432 0-.238.193-.432.431-.432h6.91z"/>
</svg>
