<svg xmlns="http://www.w3.org/2000/svg" width="39" height="40" viewBox="0 0 39 40">
    <path fill="#2E2E2E" d="M31.09 5.994c.24 0 .433.194.433.432v1.888l.064.042c1.908-1.253 3.638-1.37 5.115-.291.193.14.235.41.094.603-.14.193-.41.235-.603.094-1.007-.735-2.166-.762-3.526-.044 1.773.36 2.857 1.453 3.18 3.245.042.235-.114.46-.35.502-.234.042-.458-.114-.5-.349-.31-1.718-1.426-2.589-3.473-2.663l-.002 6.878 1.905.776c.332.135.49.513.356.844-.135.331-.513.49-.844.356l-1.12-.456v13.58c0 1.728-1.35 3.14-3.054 3.234l-.184.006H9.15c-1.727 0-3.138-1.352-3.233-3.055l-.005-.184V17.443l-1.199.492c-.331.135-.71-.024-.844-.354-.135-.331.023-.709.355-.843l4.313-1.767V8.38l-1.074-.436c-.332-.135-.49-.512-.356-.844.135-.331.513-.49.844-.356l10.377 4.221L22.84 9.12c.33-.135.709.023.844.354.135.33-.024.708-.355.843l-.94.384v1.94c.056.008.112.022.167.044l8.103 3.296.001-6.455c-1.49.238-2.355 1.025-2.663 2.393l-.04.198c-.043.235-.267.391-.502.349-.235-.042-.39-.267-.349-.502.333-1.85 1.478-2.955 3.355-3.279-1.365-.725-2.528-.7-3.539.038-.192.14-.463.098-.603-.094-.14-.193-.099-.463.094-.604 1.25-.912 2.68-.97 4.247-.206V6.426c0-.238.193-.432.432-.432zm-9.999 5.236l-2.456 1.007c-.038.02-.079.037-.12.05l-11.31 4.626.001 14.519c0 1.022.79 1.86 1.791 1.937l.152.006h1.795V28.51c0-1.429 1.16-2.587 2.592-2.587h1.727c1.43 0 2.59 1.158 2.59 2.587v4.863h3.238V11.23zm1.296 2.784v19.36l6.194.001c1.022 0 1.86-.789 1.937-1.791l.006-.152V17.324l-8.137-3.31zm-7.124 12.772h-1.727c-.954 0-1.728.772-1.728 1.725v4.86h5.182v-4.86c0-.953-.773-1.725-1.727-1.725zm11.078-2.365c.238 0 .432.193.432.432v1.292c0 .239-.194.432-.432.432-.239 0-.432-.193-.432-.432v-1.292c0-.239.193-.432.432-.432zm-11.942-7.12c1.431 0 2.591 1.16 2.591 2.588 0 1.429-1.16 2.587-2.59 2.587-1.432 0-2.592-1.158-2.592-2.587 0-1.429 1.16-2.587 2.591-2.587zm11.942 2.37c.238 0 .432.193.432.432v1.292c0 .239-.194.432-.432.432-.239 0-.432-.193-.432-.432v-1.292c0-.239.193-.432.432-.432zm-11.942-1.507c-.954 0-1.727.773-1.727 1.725 0 .953.773 1.725 1.727 1.725.954 0 1.727-.772 1.727-1.725 0-.952-.773-1.725-1.727-1.725zM9.833 8.907v5.534l6.78-2.775-6.78-2.759z"/>
</svg>
