<svg xmlns="http://www.w3.org/2000/svg" width="24" height="24" viewBox="0 0 24 24">
    <g fill="none" fill-rule="evenodd">
        <g fill="#000" fill-rule="nonzero">
            <path d="M15.444 5.018c2.368 1.323 3.918 2.879 4.62 4.662.29-.116.605-.18.936-.18 1.38 0 2.5 1.12 2.5 2.5s-1.12 2.5-2.5 2.5c-.329 0-.63-.044-.904-.133l-.025-.01-.102.257c-.786 1.867-2.395 3.405-4.5 4.236-1.082.427-2.258.65-3.469.65-1.255 0-2.473-.24-3.588-.698-2.143-.881-3.755-2.5-4.483-4.444l.175-.067c-.324.14-.693.209-1.104.209C1.62 14.5.5 13.38.5 12S1.62 9.5 3 9.5c.324 0 .634.062.918.174.777-2.108 2.59-3.831 4.976-4.658.261-.09.546.048.636.31.09.26-.048.545-.309.635-2.194.76-3.82 2.36-4.443 4.284.447.451.722 1.071.722 1.755 0 .276-.224.5-.5.5s-.5-.224-.5-.5c0-.828-.672-1.5-1.5-1.5s-1.5.672-1.5 1.5.672 1.5 1.5 1.5c.28 0 .514-.043.706-.127.075-.032.19-.118.334-.258.197-.193.514-.19.707.007.176.18.189.459.04.653.581 1.783 2.029 3.29 4.006 4.102.993.408 2.082.623 3.207.623 1.085 0 2.137-.2 3.102-.58 2.028-.8 3.518-2.328 4.113-4.144-.15-.194-.138-.474.038-.654.193-.197.51-.2.707-.007.143.14.259.226.334.258.192.084.426.127.706.127.828 0 1.5-.672 1.5-1.5s-.672-1.5-1.5-1.5-1.5.672-1.5 1.5c0 .276-.224.5-.5.5s-.5-.224-.5-.5c0-.678.27-1.293.708-1.743-.565-1.64-1.972-3.093-4.252-4.365-.24-.135-.327-.44-.193-.68.135-.242.44-.328.68-.194zm-1.516 8.684c.165.102.216.317.115.482-.553.896-1.24 1.368-2.05 1.368-.81 0-1.497-.472-2.05-1.368-.101-.165-.05-.38.114-.482.165-.101.38-.05.482.114.435.706.915 1.036 1.454 1.036.538 0 1.018-.33 1.454-1.036.101-.164.317-.215.481-.114zM9.15 11.3c.414 0 .75.336.75.75s-.336.75-.75.75-.75-.336-.75-.75.336-.75.75-.75zm5.6 0c.414 0 .75.336.75.75s-.336.75-.75.75-.75-.336-.75-.75.336-.75.75-.75zm-1.355-7.484c.463.717.699 1.61.55 2.362-.19.96-.96 1.606-2.293 1.796-.164.024-.315-.09-.339-.254-.023-.164.09-.316.255-.34 1.093-.156 1.65-.624 1.788-1.318.116-.584-.08-1.324-.465-1.92-.509-.788-1.414-.806-1.832-.386-.364.365-.431 1.153.024 1.474.394.277.839.277 1.384-.019.145-.079.327-.025.406.121.08.146.025.328-.12.407-.735.398-1.423.398-2.015-.019-.807-.567-.702-1.788-.104-2.388.672-.674 2.03-.648 2.76.484z"/>
        </g>
    </g>
</svg>
