<?xml version="1.0" standalone="no"?>
<!DOCTYPE svg PUBLIC "-//W3C//DTD SVG 20010904//EN"
 "http://www.w3.org/TR/2001/REC-SVG-20010904/DTD/svg10.dtd">
<svg version="1.0" xmlns="http://www.w3.org/2000/svg"
 width="834.000000pt" height="238.000000pt" viewBox="0 0 834.000000 238.000000"
 preserveAspectRatio="xMidYMid meet">

<g transform="translate(0.000000,238.000000) scale(0.100000,-0.100000)"
fill="#FFF" stroke="none">
<path d="M5890 1495 l0 -885 155 0 155 0 0 885 0 885 -155 0 -155 0 0 -885z"/>
<path d="M2010 1894 c-304 -58 -522 -307 -538 -614 -15 -311 187 -582 496
-661 165 -42 348 -8 460 85 45 38 52 34 52 -34 l0 -60 145 0 145 0 0 363 c0
329 -2 371 -20 441 -29 113 -83 208 -165 290 -130 130 -260 187 -440 192 -60
1 -121 0 -135 -2z m255 -324 c86 -38 129 -81 171 -166 33 -66 37 -81 37 -153
0 -68 -5 -89 -31 -144 -36 -77 -92 -136 -164 -173 -76 -40 -199 -45 -283 -13
-83 31 -173 121 -204 204 -47 125 -15 278 77 372 105 107 260 136 397 73z"/>
<path d="M3535 1881 c-69 -20 -155 -62 -174 -85 -23 -28 -31 -18 -31 39 l0 55
-150 0 -150 0 0 -640 0 -640 150 0 150 0 0 353 c0 194 5 381 10 416 26 155
125 250 263 251 97 0 174 -48 218 -138 24 -47 24 -49 27 -464 l3 -418 150 0
149 0 0 443 c0 479 -2 503 -56 608 -94 187 -341 284 -559 220z"/>
<path d="M4895 1890 c-130 -26 -248 -94 -348 -199 -76 -81 -108 -133 -143
-237 -23 -68 -27 -96 -28 -199 -1 -99 3 -133 22 -195 62 -200 228 -370 422
-431 94 -30 237 -36 336 -15 305 66 514 325 514 636 0 259 -136 472 -375 586
-117 57 -278 78 -400 54z m252 -301 c72 -28 144 -94 180 -168 26 -51 28 -66
28 -171 0 -106 -2 -120 -28 -172 -36 -74 -120 -151 -189 -174 -29 -10 -82 -18
-118 -18 -92 0 -160 26 -225 85 -76 70 -106 136 -113 247 -7 139 37 251 130
325 83 67 226 86 335 46z"/>
<path d="M7522 1880 c-206 -54 -384 -217 -452 -414 -66 -192 -40 -401 69 -568
197 -302 604 -390 864 -186 l37 30 0 -66 0 -66 151 0 151 0 -4 378 c-4 360 -5
380 -27 447 -38 115 -80 184 -166 271 -167 167 -399 232 -623 174z m295 -302
c74 -27 145 -95 185 -176 29 -59 33 -76 33 -152 0 -71 -4 -94 -27 -142 -35
-75 -94 -138 -165 -174 -53 -26 -67 -29 -158 -29 -84 0 -107 4 -147 23 -74 37
-134 96 -170 170 -29 59 -33 76 -33 152 0 71 4 94 27 142 83 178 269 254 455
186z"/>
<path d="M13 1873 c3 -10 124 -294 270 -631 l266 -614 -134 -308 c-74 -170
-135 -312 -135 -315 0 -3 76 -5 168 -5 l168 0 389 893 c214 490 399 916 412
945 l23 52 -177 -2 -176 -3 -181 -427 c-100 -235 -183 -428 -186 -428 -3 0
-86 194 -185 430 l-180 430 -174 0 c-160 0 -173 -1 -168 -17z"/>
<path d="M6498 1198 c-3 -743 -2 -725 -55 -796 -30 -40 -72 -63 -143 -77 l-55
-12 -3 -157 -3 -158 58 6 c277 32 412 137 484 376 23 74 23 80 27 793 l3 717
-155 0 -155 0 -3 -692z"/>
</g>
</svg>
