<svg xmlns="http://www.w3.org/2000/svg" width="24" height="24" viewBox="0 0 24 24">
    <g fill="none" fill-rule="evenodd">
        <g fill="#000" fill-rule="nonzero">
            <path d="M7.21 2.58c2.342-2.343 6.141-2.343 8.485 0 2.343 2.344 2.343 6.143 0 8.486-.389.388-.817.712-1.272.972l-1.162 8.928c-.09.688-.635 1.216-1.308 1.296l-.001 1.511c0 .276-.224.5-.5.5-.246 0-.45-.177-.492-.41l-.008-.09v-1.51c-.674-.08-1.22-.609-1.31-1.297l-1.16-8.928c-.455-.26-.884-.583-1.273-.972-2.343-2.343-2.343-6.142 0-8.485zm5.102 17.928H10.59l.043.33c.026.193.16.349.336.409l.078.02.082.006h.643c.252 0 .464-.186.496-.436l.043-.329zm1.04-7.992l-.076.024-.015.005c-.073.023-.146.045-.22.065l-.061.016c-.173.046-.347.083-.521.113l-.06.01c-.067.01-.133.02-.2.028l-.08.01-.171.016-.116.008-.127.007c-.169.007-.338.007-.507 0l-.126-.007-.116-.008c-.057-.005-.114-.01-.171-.017l-.08-.01c-.065-.007-.128-.016-.192-.026l-.073-.012c-.171-.03-.341-.066-.51-.11l-.021-.006-.07-.019c-.063-.017-.125-.036-.188-.055l-.016-.005-.024-.008-.059-.02.948 7.293h1.903zm3.088-5.342H6.464c.081 1.16.565 2.298 1.452 3.185.41.41.874.734 1.368.971.15.073.302.137.457.193.042.015.083.03.125.043l-.125-.043c.083.03.166.057.25.083l-.125-.04c.07.024.142.046.213.066l-.089-.026c.079.024.158.046.238.066l-.149-.04c.087.025.175.047.263.067l-.114-.027c.083.021.168.04.253.057l-.139-.03c.077.018.155.033.232.047l-.093-.017c.09.017.18.032.27.045l-.177-.028c.081.014.163.027.244.037l-.067-.009c.075.01.15.02.226.027l-.159-.018c.09.012.181.02.272.027l-.113-.01c.071.007.142.013.212.016l-.099-.006c.207.015.414.017.62.007l.104-.007-.103.007c.071-.004.142-.01.214-.016l-.111.01c.092-.007.183-.017.274-.028l-.163.018c.073-.007.147-.016.22-.026l-.057.008c.083-.01.165-.023.247-.038l-.19.03c.09-.012.18-.027.27-.045l-.08.015c.079-.014.157-.03.236-.048l-.156.033c.086-.017.173-.036.259-.058l-.103.025c.077-.017.153-.037.23-.058l-.127.033c.085-.021.17-.045.256-.071l-.13.038c.07-.02.14-.04.209-.063l-.08.025c.079-.024.156-.05.233-.078l-.153.053c.212-.07.42-.153.624-.252.486-.235.947-.557 1.354-.965.887-.887 1.372-2.025 1.453-3.185zm-1.453-3.886c-1.952-1.953-5.118-1.953-7.07 0-.888.887-1.372 2.024-1.453 3.184h9.976c-.081-1.16-.566-2.297-1.453-3.184z" transform="rotate(45 11.452 12.548)"/>
        </g>
    </g>
</svg>
