<svg xmlns="http://www.w3.org/2000/svg" xmlns:xlink="http://www.w3.org/1999/xlink" width="24" height="24" viewBox="0 0 24 24">
    <defs>
        <path id="jlmya2a8ka" d="M0 0L24 0 24 24 0 24z"/>
    </defs>
    <g fill="none" fill-rule="evenodd">
        <g>
            <g>
                <mask id="xma8ipqhob" fill="#fff">
                    <use xlink:href="#jlmya2a8ka"/>
                </mask>
                <path fill="#000" fill-rule="nonzero" d="M12 3c.525 0 .98.296 1.208.73.035.017.067.042.093.074l.027.041 2.87 5.316c.024-.003.047-.003.071-.001l.057.007.055.016 2.932 1.067c.495.18.75.728.57 1.224-.018.049-.04.096-.065.141l-.04.067-1.498 2.216c-.959 1.42-2.583 2.18-4.228 2.073l.26 2.984h4.822l.057.003c.122.013.217.085.515.462l.095.122c.085.11.185.241.301.397l.15.198.257.345c.136.181.099.438-.082.573-.181.135-.438.098-.573-.083l-.447-.591c-.103-.135-.193-.252-.271-.35l-.19-.234-.02-.024H5.105l-.967 1.21c-.129.16-.353.198-.525.098l-.05-.034c-.16-.129-.199-.353-.099-.525l.035-.05 1.09-1.364c.065-.08.158-.133.259-.149l.061-.004h4.66l.255-4.322-5.093-1.854c-1.993-.725-3.253-2.685-3.1-4.789l.014-.147.278-2.66c.055-.524.524-.905 1.048-.85.052.005.103.015.153.029l.075.023 2.91 1.06 4.816-1.92C11.175 3.205 11.563 3 12 3zm-1.64 11.828l-.245 4.127h3.648l-.264-3.053c-.206-.039-.41-.09-.613-.157l-.143-.05-2.383-.867zM2.886 5.147c-.064-.007-.122.032-.143.09l-.006.031-.278 2.66c-.182 1.739.811 3.38 2.42 4.032l.132.05 8.012 2.916c1.64.598 3.473.034 4.496-1.367l.083-.119 1.497-2.216c.007-.01.012-.02.015-.03.022-.06 0-.123-.049-.158l-.032-.017-2.655-.966-.888 1.12c-.098.123-.255.178-.405.146l-.056-.016-9.226-3.358c-.147-.053-.249-.185-.266-.337l-.003-.058.04-1.43L2.91 5.15l-.025-.004zm9.661 6.684c.23.193.26.537.067.768-.193.231-.537.261-.768.067-.23-.193-.261-.537-.067-.768.193-.23.537-.26.768-.067zm-4.39-1.598c.232.194.262.538.068.769-.194.23-.538.26-.768.067-.231-.194-.261-.538-.068-.769.194-.23.538-.26.769-.067zM13.4 5.126l.228 4.796 1.404.511.734-.925L13.4 5.126zM12 3.546c-.425 0-.775.324-.814.739l-.004.079h-.269l.268.015-.261 4.557 2.153.784-.255-5.343.172-.009-.002-.004h-.17c0-.452-.366-.819-.818-.819zm-1.356.678L6.397 5.917l-.037 1.36 4.025 1.464.252-4.393.002-.074.005-.05z" mask="url(#xma8ipqhob)"/>
            </g>
        </g>
    </g>
</svg>
