<svg xmlns="http://www.w3.org/2000/svg" width="24" height="24" viewBox="0 0 24 24">
    <g fill="none" fill-rule="evenodd">
        <g>
            <g>
                <path d="M0 0H24V24H0z"/>
                <path fill="#2E2E2E" fill-rule="nonzero" d="M13.006 18.385l-.232 1.313.934.921-1.28.178L11.87 22l-.559-1.203-1.28-.178.934-.92-.232-1.314 1.137.634 1.137-.634zm-6.664-.87l.78.667.951-.35-.356 1.02.586.868-.999-.035-.59.886-.261-1.042-.95-.32.837-.609.002-1.084zm11.225 0l.003 1.085.837.61-.95.32-.262 1.041-.59-.886-.999.035.586-.868-.356-1.02.952.35.779-.666zM3.525 15.269l.487.417.595-.22-.223.638.367.543-.625-.022-.369.554-.163-.651-.594-.2.523-.38.002-.679zm16.863-.091l.059.675.553.332-.575.252-.108.664-.414-.519-.62.079.319-.574-.275-.615.61.164.45-.458zM11.484 3.225c.14-.3.553-.3.693 0l1.855 3.99 4.247.59c.3.042.431.405.251.639l-.037.042-3.101 3.056.77 4.355c.055.31-.24.551-.513.444l-.047-.023-3.772-2.102-3.77 2.102c-.268.15-.582-.066-.567-.367l.006-.054.77-4.355-3.1-3.056c-.22-.216-.12-.589.16-.67l.054-.01 4.246-.59zm.346 1.088l-1.598 3.44c-.056.12-.167.204-.295.222l-3.66.507 2.672 2.633c.08.08.123.19.12.303l-.007.056-.663 3.752 3.25-1.81c.097-.055.211-.063.314-.024l.05.023 3.25 1.811-.664-3.752c-.02-.113.008-.228.076-.317l.037-.042 2.671-2.633-3.659-.507c-.11-.016-.207-.079-.268-.173l-.027-.049-1.599-3.44z"/>
            </g>
        </g>
    </g>
</svg>
