<svg xmlns="http://www.w3.org/2000/svg" width="24" height="24" viewBox="0 0 24 24">
    <g fill="none" fill-rule="evenodd">
        <g fill="#000" fill-rule="nonzero">
            <path d="M9.7 3L12 5.249 14.3 3H23v5.173l-.088.135c-1.015 1.575-2.783 2.28-5.23 2.143l-.268-.02L18.78 21H5.22l1.364-10.569-.234.018c-2.36.14-4.092-.5-5.132-1.947l-.131-.194L1 8.173V3h8.7zM7.447 4.105H3.934v5.017c.716.223 1.583.293 2.61.205l.293-.029.317-.039.725-.099-1.385 10.734h2.385V8.544l1.418-1.514-2.85-2.925zm8.442 0h-1.128l-2.362 2.309L10 8.976v10.918h1.201V9.14l.077-.189 4.611-4.846zm4.29 0h-3.522l-4.896 5.144.001 10.645h5.743L16.123 9.17l1.037.128c1.214.134 2.217.062 3.02-.214l-.001-4.979zm-16.693 0H2.12v3.737l.027.039c.341.467.786.825 1.34 1.072l-.001-4.848zm18.393 0h-1.252l.001 4.795c.503-.246.912-.588 1.23-1.026l.11-.16-.089.128V4.105zm-12.641 0H8.224l2.453 2.519.544-.581-1.983-1.938z"/>
        </g>
    </g>
</svg>
