<svg xmlns="http://www.w3.org/2000/svg" width="24" height="24" viewBox="0 0 24 24">
    <g fill="none" fill-rule="evenodd">
        <g fill="#000" fill-rule="nonzero">
            <path d="M20.626 4.221c.261-.387.864-.237.912.228.467 4.482-.6 7.49-3.247 8.925-2.395 1.297-4.542 1.085-6.322-.635l-.147-.147-.15.152c-1.715 1.656-3.776 1.91-6.071.758l-.247-.128c-.668-.362-1.234-.823-1.702-1.383v6.856c0 .194-.157.35-.35.35-.17 0-.31-.12-.343-.279l-.007-.07V10.94c-.85-1.61-1.128-3.782-.846-6.491.049-.465.651-.615.912-.228.794 1.18 1.888 1.611 3.378 1.32l.193-.032c1.667-.231 3.347.767 5.051 2.921l.182.235.183-.235c1.703-2.153 3.383-3.152 5.051-2.921l.413.07c1.378.208 2.403-.236 3.157-1.358zm.004 1.497l-.07.06c-.934.764-2.115 1.016-3.504.744l-.155-.025c-1.402-.18-2.964.886-4.67 3.302-.2.282-.617.282-.817 0C9.644 7.294 8.03 6.24 6.588 6.522l-.258.045c-1.277.193-2.37-.073-3.246-.788l-.07-.06-.01.265c-.085 3.188.8 5.299 2.627 6.396l.199.114c2.162 1.171 3.932.909 5.459-.794l.152-.178c.199-.232.557-.233.758-.003l.157.181c1.527 1.703 3.297 1.965 5.459.794 1.961-1.062 2.914-3.209 2.825-6.51l-.01-.266zm-4.626 2.787c1.183-.317 2.306-.087 2.497.625.19.712-.667 1.473-1.85 1.79-1.183.317-2.306.087-2.497-.625-.19-.713.667-1.473 1.85-1.79zm-8.053 0c1.183.317 2.04 1.077 1.85 1.79-.19.712-1.314.942-2.497.625-1.183-.317-2.04-1.078-1.85-1.79.191-.712 1.314-.942 2.497-.625zm10.067.754c-.095-.354-.934-.526-1.884-.271-.951.255-1.592.823-1.497 1.177.095.355.934.526 1.885.272.95-.255 1.591-.823 1.496-1.178zm-12.08 0c-.096.355.545.923 1.496 1.178.95.254 1.789.083 1.884-.272.095-.354-.546-.922-1.496-1.177s-1.79-.083-1.885.271z"/>
        </g>
    </g>
</svg>
