<svg xmlns="http://www.w3.org/2000/svg" width="24" height="24" viewBox="0 0 24 24">
    <g fill="none" fill-rule="evenodd">
        <g fill="#000" fill-rule="nonzero">
            <path d="M13.69 5.293l.074.051.109.09c.479.418 1.177 1.235 2.113 2.47l.204.27.538.727 2.795.697.161.068c.908.566 1.256 1.307.847 2.087-.323.616-.834.975-1.48 1.027l-.164.006-.117-.012-3.511-.739c-.086-.018-.165-.056-.233-.109l-.063-.059-1.502-1.638-.248.326 2.62 2.63c.339.483.393 1.01.164 1.514l-.07.137-.09.148c-.23.335-1.082 1.162-2.608 2.532l-.223.199-1.253 1.107 6.147 1.65c1.806.528 2.854.553 3.122.28l.034-.044.944.563c-.558.89-1.925.926-4.115.321l-.29-.083L1 17.052l.294-1.04 6.305 1.694.002-.002 4.03-3.582-3.53-2.678c-.18-.137-.25-.363-.193-.568l.032-.086.048-.081 1.367-1.904-4.696-1.776-.462 1.081-.51-.207.455-1.07-1.126-.425.2-.503 1.138.431.469-1.093.51.208-.462 1.08L9.68 8.35l.138-.192c.054-.075.112-.147.173-.216 1.994-2.252 2.98-3.099 3.699-2.649zm-3.274 3.914l-1.22 1.7 3.634 2.758c.214.162.269.442.157.664l-.05.08-.074.08-3.79 3.366 1.605.461 1.062-.935c1.577-1.4 2.591-2.344 3-2.787l.06-.065.086-.103.03-.04c.13-.19.148-.335.095-.46l-.031-.061-2.886-2.886c-.165-.166-.202-.413-.1-.614l.052-.083.269-.357-1.899-.718zm2.807-2.888l-.086.054c-.094.063-.207.149-.337.258-.347.291-.79.727-1.328 1.305l-.205.224-.438.487-.053.064-.033.041 1.913.724.32-.421c.189-.248.543-.287.783-.107l.075.068 1.834 2.001 3.265.687.06-.002c.169-.02.304-.094.42-.236l.069-.093.064-.11c.098-.189.034-.359-.346-.616l-.044-.028-2.897-.72c-.064-.017-.123-.043-.176-.079l-.075-.06-.063-.072c-1.176-1.615-2.053-2.707-2.601-3.254l-.1-.096-.02-.02zM16.898 2c1.374 0 2.488 1.087 2.488 2.427s-1.114 2.427-2.488 2.427c-1.375 0-2.49-1.087-2.49-2.427S15.524 2 16.899 2zm0 1.079c-.764 0-1.383.603-1.383 1.348 0 .745.619 1.348 1.383 1.348.763 0 1.382-.603 1.382-1.348 0-.745-.619-1.348-1.382-1.348z"/>
        </g>
    </g>
</svg>
