<svg xmlns="http://www.w3.org/2000/svg" width="24" height="24" viewBox="0 0 24 24">
    <g fill="none" fill-rule="evenodd">
        <g fill="#000" fill-rule="nonzero">
            <path d="M6.174 6l.14.007c.735.073 1.31.713 1.31 1.493v2.966h8.751V7.5c0-.78.576-1.42 1.31-1.493l.14-.007h.537c.754 0 1.373.595 1.443 1.356l.007.144v.166h1.128c.753 0 1.372.596 1.443 1.356l.006.145v.898C23.346 10.448 24 11.406 24 12.5s-.655 2.052-1.61 2.435v.898c0 .78-.576 1.42-1.31 1.493l-.14.007h-1.128v.167c0 .78-.575 1.42-1.31 1.493l-.14.007h-.536c-.754 0-1.373-.595-1.444-1.356l-.006-.144-.001-3.186H7.624V17.5l-.006.144c-.07.761-.69 1.356-1.444 1.356h-.536l-.14-.007c-.735-.073-1.31-.713-1.31-1.493v-.167H3.06l-.14-.007c-.734-.072-1.31-.713-1.31-1.493v-.898C.655 14.552 0 13.594 0 12.5s.655-2.052 1.61-2.435v-.898l.007-.145c.07-.76.69-1.355 1.443-1.355l1.128-.001V7.5l.007-.144C4.265 6.595 4.885 6 5.638 6h.536zm12.188.778h-.536c-.354 0-.646.271-.692.624l-.006.098v10c0 .366.262.668.603.716l.095.006h.536c.354 0 .646-.271.692-.624l.006-.098v-10c0-.399-.312-.722-.698-.722zm-12.188 0h-.536c-.386 0-.698.323-.698.722v10l.006.098c.046.353.338.624.692.624h.536l.095-.006c.34-.048.603-.35.603-.716v-10l-.006-.098c-.046-.353-.338-.624-.692-.624zM20.94 8.444h-1.128v8.111h1.128c.35 0 .64-.267.69-.615l.008-.107V9.167c0-.363-.259-.663-.595-.715l-.103-.008zm-16.752 0H3.06l-.103.008c-.336.052-.595.352-.595.715v6.666l.008.107c.05.348.34.616.69.616l1.128-.001V8.444zM22.39 10.93v3.139l.097-.063c.375-.27.641-.684.73-1.159l.024-.18.007-.167c0-.56-.245-1.07-.638-1.41l-.123-.096-.097-.064zm-20.78 0l-.097.064-.123.096c-.393.34-.638.85-.638 1.41l.007.167.025.18c.088.475.354.89.729 1.16l.097.062V10.93zm14.765.314H7.624v2.292h8.751v-2.292z" transform="rotate(-30 12 12.5)"/>
        </g>
    </g>
</svg>
