<svg xmlns="http://www.w3.org/2000/svg" width="24" height="24" viewBox="0 0 24 24">
    <g fill="none" fill-rule="evenodd">
        <g fill="#000" fill-rule="nonzero">
            <path d="M5.649 2c.228 0 .429.035.603.104 1.238.376 1.955 1.634 1.663 2.861l-.043.16-.828 2.657.11.213c.461.91.85 1.799 1.167 2.668 1.323-2.02 3.625-3.357 6.242-3.357 4.108 0 7.437 3.29 7.437 7.347C22 18.711 18.67 22 14.563 22c-2.279 0-4.319-1.013-5.683-2.608-.144.487-.324.964-.538 1.432l-.145.305-.155.303-.161.294c-.078.14-.215.237-.372.265L7.414 22H3.948c-.192 0-.369-.102-.463-.268-2.207-3.878-1.948-8.482.736-13.765l.15-.291-.054.105-.827-2.656c-.397-1.276.322-2.583 1.62-3.02 0 0 .197-.105.539-.105zm1.419 8.356H4.294c-1.527 3.783-1.63 7.104-.329 9.986l.14.297.16.311h2.832l.16-.312c.375-.764.649-1.56.822-2.388-.607-1.063-.952-2.29-.952-3.597 0-.947.181-1.853.512-2.685-.16-.527-.35-1.064-.571-1.612zm7.495-2c-3.52 0-6.374 2.82-6.374 6.297 0 3.478 2.854 6.297 6.374 6.297 3.52 0 6.375-2.819 6.375-6.297 0-3.478-2.854-6.297-6.375-6.297zm1.063 8.921c.293 0 .53.235.53.525 0 .29-.237.525-.53.525-.294 0-.531-.235-.531-.525 0-.29.237-.525.53-.525zm2.124-2.099c.294 0 .532.235.532.525 0 .29-.238.525-.532.525-.293 0-.53-.235-.53-.525 0-.29.237-.525.53-.525zm-3.187-.525c.294 0 .532.235.532.525 0 .29-.238.525-.532.525-.293 0-.53-.235-.53-.525 0-.29.237-.525.53-.525zM6.148 8.355h-.935c-.164.321-.319.638-.464.953h1.864l-.195-.413-.206-.416-.064-.124zm-.45-5.303h-.04l-.043.011-.097.019-.096.025c-.688.21-1.092.9-.95 1.582l.034.127.775 2.49h.799l.776-2.49c.212-.68-.14-1.397-.79-1.664l-.126-.045-.096-.025-.097-.019-.048-.011z"/>
        </g>
    </g>
</svg>
