<svg xmlns="http://www.w3.org/2000/svg" width="24" height="24" viewBox="0 0 24 24">
    <g fill="none" fill-rule="evenodd">
        <g fill="#000" fill-rule="nonzero">
            <path d="M12 3.765l.154.01c1.18.143 5.96 2.273 6.891 3.05.665.554 1.319 1.717 2.501 4.296l.812 1.8c.205.458.16 1.083-.16 1.498-.41.532-1.134.62-2.026.233l-.05-.022-5.101 3.754-.001.017c-.18.692-.37 1.142-.638 1.39l-.092.075-.13.093h-4.038c-.577 0-.81-.517-1.026-1.585l-.01-.103c0-.018 0-.035.002-.052l-5-3.68-.26.113c-.833.361-1.519.308-1.94-.133l-.087-.1c-.32-.415-.364-1.04-.159-1.498l.398-.887c1.45-3.226 2.176-4.593 2.915-5.209.981-.818 6.057-3.06 7.045-3.06zm.1 14.223c-1.235 0-1.865.154-1.99.256l-.016.016.019.089c.049.218.098.393.146.52l.036.089h3.478l.055-.113c.05-.116.11-.275.167-.466l.043-.148c.005-.057-.57-.243-1.938-.243zm5.98-4.23l-3.308 3.825c.07.073.124.153.165.241l4.654-3.424-.241-.104-1.084-.46-.186-.077zm-11.913-.101c-.339.139-.684.283-1.04.435l-.507.218 4.63 3.407c.06-.086.134-.163.225-.232zM12 11.879c-.759 0-2.105.364-3.858 1.007l-.403.15-.837.324-.246.098 3.274 3.789c.506-.184 1.235-.26 2.17-.26 1 0 1.761.088 2.257.313l3.236-3.741c-.166-.068-.331-.134-.495-.199-.43-.17-.843-.328-1.24-.474l-.318-.115c-1.463-.523-2.618-.837-3.343-.885zm-.412-1.907c-.8 0-3.753 1.096-8.702 3.25l-.46.2c-.024.157.006.34.088.447.124.161.407.196.956-.042l1.918-.822c.403-.168.795-.328 1.183-.481.436-.173.856-.334 1.26-.483 1.853-.68 3.269-1.062 4.185-1.062l.226.008c.903.06 2.235.433 3.926 1.054.405.149.825.31 1.261.483.582.23 1.173.474 1.796.74l1.305.563c.55.238.832.203.956.042.08-.103.11-.28.09-.433l-1.991-.784c-4.56-1.777-7.267-2.68-7.997-2.68zm4.608-3.691l.864 4.55c1.174.436 2.53.959 4.074 1.57l-.394-.878c-1.11-2.419-1.75-3.573-2.271-4.007-.316-.263-1.226-.743-2.273-1.235zm-8.53.066c-.987.467-1.831.916-2.135 1.17-.56.467-1.26 1.77-2.535 4.586l-.111.248.45-.195c1.283-.554 2.419-1.03 3.409-1.428zm4.326-1.681l-.077.006c-.513.069-2.021.662-3.456 1.308l-.934 4.437c2.13-.833 3.472-1.245 4.063-1.245.618 0 2.172.456 4.707 1.378l-.88-4.627c-1.402-.627-2.846-1.191-3.346-1.252l-.077-.005z"/>
        </g>
    </g>
</svg>
