<svg xmlns="http://www.w3.org/2000/svg" width="24" height="24" viewBox="0 0 24 24">
    <g fill="none" fill-rule="evenodd">
        <g>
            <path fill="#000" fill-rule="nonzero" d="M14.95 3c1.077 0 1.95.873 1.95 1.95v12c0 1.077-.873 1.95-1.95 1.95h-8C5.873 18.9 5 18.027 5 16.95v-12C5 3.873 5.873 3 6.95 3zm0 .9h-8c-.58 0-1.05.47-1.05 1.05v12c0 .58.47 1.05 1.05 1.05h8c.58 0 1.05-.47 1.05-1.05v-12c0-.58-.47-1.05-1.05-1.05zm-1 11.75c.331 0 .6.269.6.6 0 .331-.269.6-.6.6-.331 0-.6-.269-.6-.6 0-.331.269-.6.6-.6zm-2.063-6.075c.642 0 1.146.504 1.146 1.146 0 .787-.708 1.429-1.78 2.402l-.303.275-.302-.273c-1.073-.975-1.781-1.617-1.781-2.404 0-.642.504-1.146 1.145-1.146.363 0 .71.169.938.435.227-.266.575-.435.938-.435zm0 .417c-.32 0-.633.206-.741.491h-.39c-.11-.285-.423-.491-.744-.491-.416 0-.729.312-.729.729 0 .602.655 1.196 1.646 2.094l.021.02.02-.02c.992-.898 1.647-1.492 1.647-2.094 0-.417-.313-.73-.73-.73zM7.95 5.25c.331 0 .6.269.6.6 0 .331-.269.6-.6.6-.331 0-.6-.269-.6-.6 0-.331.269-.6.6-.6z" transform="rotate(-20 10.95 10.95)"/>
            <path fill="#FFF" d="M8 6H19V20H8z"/>
            <path fill="#000" fill-rule="nonzero" d="M17.95 6c1.077 0 1.95.873 1.95 1.95v12c0 1.077-.873 1.95-1.95 1.95h-8C8.873 21.9 8 21.027 8 19.95v-12C8 6.873 8.873 6 9.95 6zm0 .9h-8c-.58 0-1.05.47-1.05 1.05v12c0 .58.47 1.05 1.05 1.05h8c.58 0 1.05-.47 1.05-1.05v-12c0-.58-.47-1.05-1.05-1.05zm-1 11.75c.331 0 .6.269.6.6 0 .331-.269.6-.6.6-.331 0-.6-.269-.6-.6 0-.331.269-.6.6-.6zm-2.063-6.075c.642 0 1.146.504 1.146 1.146 0 .787-.708 1.429-1.78 2.402l-.303.275-.302-.273c-1.073-.975-1.781-1.617-1.781-2.404 0-.642.504-1.146 1.145-1.146.363 0 .71.169.938.435.227-.266.575-.435.938-.435zm0 .417c-.32 0-.633.206-.741.491h-.39c-.11-.285-.423-.491-.744-.491-.416 0-.729.312-.729.729 0 .602.654 1.196 1.646 2.094l.021.02.02-.02c.992-.898 1.647-1.492 1.647-2.094 0-.417-.313-.73-.73-.73zM10.95 8.25c.331 0 .6.269.6.6 0 .331-.269.6-.6.6-.331 0-.6-.269-.6-.6 0-.331.269-.6.6-.6z"/>
        </g>
    </g>
</svg>
