<svg xmlns="http://www.w3.org/2000/svg" width="24" height="24" viewBox="0 0 24 24">
    <g fill="none" fill-rule="evenodd">
        <g fill="#000" fill-rule="nonzero">
            <path d="M12.405 2c.118 0 .218.08.245.19l.007.058.039 5.018h.603c.246 0 .45.177.492.41l.008.09V8.84h1.295V7.766c0-.245.178-.45.411-.492l.09-.008h1.644c.224 0 .417.149.479.358l.017.081.514 4.162 1.137-.144c.245-.031.471.12.541.348l.019.09.96 8.139h1.592c.277 0 .502.224.502.5 0 .245-.178.45-.412.492l-.09.008H2.502c-.277 0-.502-.224-.502-.5 0-.245.178-.45.412-.492l.09-.008h1.411l1.181-8.153c.036-.242.24-.419.475-.428l.09.005 1.106.156.484-4.171c.026-.224.198-.4.414-.436l.083-.007h1.711c.246 0 .45.177.492.41l.008.09V8.84h.953V7.766c0-.245.177-.45.41-.492l.09-.008h.786l-.013-1.794c-.729.29-2.001-.181-2.651-1.059-.16-.215-.406-.321-.75-.346-.144-.01-.287-.007-.476.01l-.151.014-.306.03c-.17.014-.206.005-.294-.027-.343-.126-.266-.4-.009-.703.687-.807 1.77-.967 3.183-.666.665.141 1.147.008 1.486-.395l-.058.061v-.139c-.001-.138.11-.25.248-.252zm6.607 10.778l-1.418.18V14.1c0 .245-.177.45-.41.492l-.09.008h-3.128c-.245 0-.45-.177-.492-.41l-.008-.09v-1.082h-2.162V14.1c0 .245-.176.45-.41.492l-.09.008H7.97c-.214 0-.4-.135-.47-.33l-.023-.088-.203-1.22-1.261-.18L4.923 20.3l5.368-.001v-2.297c0-1.15.934-2.084 2.084-2.084 1.099 0 1.998.852 2.074 1.931l.006.149-.001 2.301 5.446.001-.888-7.522zm-6.637 4.14c-.558 0-1.018.423-1.077.966l-.006.118-.001 2.297h2.163v-2.301c0-.596-.483-1.08-1.079-1.08zM8.957 8.266H8.19l-.436 3.754.021.004c.186.026.338.153.4.324l.023.089.194 1.164h1.91l.002-1.082c0-.246.177-.45.41-.492l.09-.008h3.161c.246 0 .45.177.492.41l.008.09V13.6h2.128v-1.082c0-.224.148-.417.356-.48l.081-.016.226-.03-.461-3.727h-.702v1.073c0 .246-.176.45-.41.492l-.09.008H13.3c-.245 0-.45-.176-.492-.41l-.008-.09V8.266h-.89l.001 1.073c0 .246-.177.45-.41.492l-.09.008H9.457c-.245 0-.45-.176-.492-.41l-.008-.09V8.266zm3.199-5.237l-.046.03c-.407.226-.907.278-1.485.155-1.018-.217-1.806-.169-2.356.197l-.122.09-.114.1.237-.023c.105-.009.199-.014.288-.016h.13l.13.006c.424.03.772.164 1.025.438l.09.11.097.12c.671.773 1.932 1.065 2.152.61l-.005.007v-.001l-.021.033V3.029z"/>
        </g>
    </g>
</svg>
