<svg xmlns="http://www.w3.org/2000/svg" width="24" height="24" viewBox="0 0 24 24">
    <g fill="none" fill-rule="evenodd">
        <g fill="#000" fill-rule="nonzero">
            <path d="M20.522 4.104c.165-.013.31.11.323.275.011.142-.078.268-.207.31l-.068.013-8.126.659c.245.516.27.985.064 1.389h.992c.138 0 .25.112.25.25v.854h4.74c.718 0 1.328.508 1.47 1.198l.022.14.94 8.646c.09.823-.505 1.564-1.329 1.653l-.08.007-.082.002H4.707c-.828 0-1.5-.672-1.5-1.5l.003-.084.007-.083.97-8.646c.08-.711.65-1.26 1.35-1.326l.141-.006h4.571L10.25 7c0-.118.082-.217.193-.243l.057-.007h1.396l.02-.019c.309-.341.312-.766-.014-1.327l-8.289.671c-.165.013-.31-.11-.323-.275-.012-.141.077-.268.207-.31l.068-.013 16.957-1.373zm-2.031 4.75H5.678c-.226 0-.42.152-.48.363L5.18 9.3l-.13 1.15 1.821.001c.38 0 .694.282.744.648l.006.102v3.526c0 .38-.282.694-.648.743l-.102.007H4.5v-.108l-.29 2.576-.003.056c0 .245.177.45.41.492l.09.008h5.178l.001-7.329c0-.38.282-.693.648-.743l.102-.007h2.914c.38 0 .694.282.743.648l.007.102V18.5h5.131l.054-.003c.244-.026.428-.224.445-.46l-.002-.091-.27-2.47H17.55l-.102-.007c-.333-.045-.596-.308-.641-.641l-.007-.102V11.2l.007-.102c.045-.333.308-.596.641-.641l.102-.007h1.562l-.124-1.15c-.028-.253-.242-.445-.497-.445zm-4.94 2.067h-2.915c-.118 0-.217.082-.243.193l-.007.057V18.5h3.413l.001-7.329c0-.118-.082-.217-.192-.243l-.058-.007zm5.615.029H17.55l-.057.007c-.089.02-.159.088-.184.175l-.009.068v3.526l.007.058c.02.088.088.158.175.183l.068.01 2.054-.001-.438-4.026zm-12.294 0H4.995l-.452 4.026h2.33c.118 0 .217-.082.243-.192l.006-.058V11.2c0-.118-.082-.217-.192-.243l-.058-.007zm6.378-3.7h-2.5v.5h2.5v-.5z"/>
        </g>
    </g>
</svg>
