<svg xmlns="http://www.w3.org/2000/svg" width="24" height="24" viewBox="0 0 24 24">
    <g fill="none" fill-rule="evenodd">
        <g fill="#000" fill-rule="nonzero">
            <path d="M12.022 2.074c3.116.186 5.255 1.669 6.34 4.401l.009.024.76.001c.78 0 1.42.595 1.494 1.356L20.63 8v4.415c0 .64-.404 1.203-.997 1.414l-.13.04-.661.168-.001.023c-.557 2.206-1.44 3.88-2.643 5.002l.001.026v2.05c0 .275-.224.5-.5.5-.245 0-.45-.178-.492-.411l-.008-.09v-1.314c-.916.561-1.976.873-3.176.93-1.193.058-2.25-.173-3.165-.684v1.068c0 .276-.224.5-.5.5-.246 0-.45-.177-.492-.41l-.008-.09V19.35c-1.172-1.056-2.047-2.697-2.62-4.902l-.031-.12-.701-.14c-.655-.131-1.139-.677-1.2-1.33l-.007-.142V8c0-.78.595-1.42 1.356-1.493L4.8 6.5h.824c1.068-3.112 3.233-4.615 6.398-4.426zm-.28 12.1l-.077.062-.602.59c-.315.31-.748.462-1.182.424l-.162-.023-3.418-.681c.528 1.87 1.279 3.225 2.256 4.085.088.036.161.098.214.175.765.6 1.66.914 2.69.952l.285.004.23-.007c2.84-.137 4.746-1.91 5.76-5.432l-3.371.862c-.458.117-.94.011-1.306-.28l-.117-.103-.577-.566c-.17-.167-.43-.188-.622-.063zm7.39-6.674H4.8c-.245 0-.45.177-.492.41L4.3 8v4.716c0 .209.129.392.318.466l.084.025 5.212 1.04c.13.025.263-.002.372-.073l.076-.061.602-.59c.547-.538 1.403-.571 1.988-.102l.114.101.576.566c.105.103.247.153.39.142l.085-.014 5.139-1.316c.193-.05.336-.209.368-.4l.007-.085V8c0-.276-.223-.5-.5-.5zM18.6 9.4c.276 0 .5.224.5.5v1c0 .276-.224.5-.5.5s-.5-.224-.5-.5v-1c0-.276.224-.5.5-.5zm-13.3 0c.276 0 .5.224.5.5v1c0 .276-.224.5-.5.5s-.5-.224-.5-.5v-1c0-.276.224-.5.5-.5zm1.389-2.9l10.597-.001c-.901-1.982-2.468-3.096-4.753-3.375l-.282-.03-.289-.022c-2.596-.155-4.324.96-5.273 3.427z"/>
        </g>
    </g>
</svg>
