<svg xmlns="http://www.w3.org/2000/svg" width="24" height="24" viewBox="0 0 24 24">
    <g fill="none" fill-rule="evenodd">
        <g fill="#000" fill-rule="nonzero">
            <path d="M10.437 3c.257-.003.472.179.52.422l.01.094.014 1.018c5.365.85 8.356 4.352 8.898 10.378l.029.358.04.54-8.807.345.013.907 9.271-.461c.328-.016.581.268.545.581l-.017.086-.707 2.472 2.1-.548c.28-.073.565.095.637.375.065.249-.06.502-.285.607l-.089.032-2.442.637c-.138.036-.277.066-.417.089-.117.067-.26.088-.4.048-.42.033-.84.01-1.254-.07l-.292-.067-1.392-.363c-.517-.135-1.055-.154-1.578-.058l-.26.058-1.392.363c-.678.177-1.386.2-2.071.066l-.293-.066-1.392-.363c-.516-.135-1.055-.154-1.578-.058l-.26.058-1.392.363c-.678.177-1.385.2-2.07.066l-.293-.066-2.442-.637c-.28-.073-.447-.36-.374-.639.064-.249.297-.409.543-.39l.093.015 1.546.403v-1.638c0-.248.173-.457.406-.51l.09-.013 6.416-.32-.013-.918-6.62.26 6.496-9.209-.05-3.716c-.005-.29.225-.527.513-.53zm9.31 14.683l-15.504.771-.001 1.409.076.017c.448.088.907.09 1.356.007l.26-.057 1.392-.364c.678-.177 1.385-.199 2.07-.066l.293.066 1.392.364c.517.134 1.055.154 1.578.057l.26-.057 1.392-.364c.678-.177 1.386-.199 2.071-.066l.292.066 1.392.364c.34.088.689.127 1.036.116l.645-2.263zM10 9.024l-4.446 6.301 4.531-.178-.085-6.123zm.997-3.426l.131 9.508 7.692-.3-.016-.17c-.575-5.263-3.155-8.238-7.807-9.038z"/>
        </g>
    </g>
</svg>
