<svg xmlns="http://www.w3.org/2000/svg" width="24" height="24" viewBox="0 0 24 24">
    <g fill="none" fill-rule="evenodd">
        <g fill="#000" fill-rule="nonzero">
            <path d="M11.252 18.86l.128.122.12.13c.632.729 1.723.797 2.438.154l.077-.074.073-.08c1.047-1.206 2.857-1.32 4.041-.252l.128.122.121.13c.686.792 1.872.866 2.648.167l.082-.079.043-.043c.222-.226.582-.226.803 0 .197.202.219.513.065.739l-.065.08-.043.043c-.043.044-.087.086-.133.127-1.194 1.075-2.992 1.01-4.11-.114l-.141-.153c-.047-.054-.097-.105-.15-.152-.715-.644-1.806-.576-2.438.152-.078.09-.16.174-.249.254-1.133 1.02-2.837.96-3.9-.102l-.14-.152c-.048-.054-.098-.105-.15-.152-.67-.604-1.672-.581-2.315.024l-.124.128c-1.113 1.283-2.99 1.485-4.338.5l-.172-.135-.33-.275c-.241-.203-.276-.568-.077-.814.177-.22.48-.272.715-.139l.084.06.33.275c.833.698 2.037.643 2.806-.1l.131-.138c1.048-1.207 2.857-1.32 4.042-.253zM20.566 3c1.407 0 2.201.835 2.201 2.294 0 .32-.254.579-.568.579-.313 0-.568-.26-.568-.579 0-.828-.294-1.137-1.065-1.137-.72 0-1.024.27-1.061.978l-.004.16V16.57c.53.082 1.091-.067 1.525-.457l.082-.08.923-.937c.222-.225.582-.225.803.001.197.201.219.513.065.738l-.066.08-.922.938c-.043.043-.087.086-.133.126-1.194 1.076-2.992 1.011-4.11-.113l-.141-.153c-.047-.054-.097-.105-.15-.153-.715-.643-1.806-.575-2.438.153-.078.09-.16.174-.249.253-1.133 1.02-2.837.961-3.9-.102l-.14-.151c-.048-.054-.098-.105-.15-.153-.715-.643-1.807-.575-2.439.153-1.113 1.283-2.99 1.485-4.338.5l-.172-.135-1.344-1.125c-.242-.203-.277-.568-.078-.815.177-.219.48-.271.715-.138l.085.059 1.343 1.125c.883.74 2.182.635 2.938-.237 1.048-1.207 2.857-1.32 4.042-.254.087.08.17.164.248.254.147.168.318.301.503.399V5.294c0-1.46.794-2.294 2.201-2.294s2.202.835 2.202 2.294c0 .32-.255.579-.568.579-.314 0-.568-.26-.568-.579 0-.828-.294-1.137-1.066-1.137-.72 0-1.024.27-1.06.978l-.005.16v2.868h5.225V5.294c0-1.46.795-2.294 2.202-2.294zm-2.202 9.026H13.14v4.48c.288-.06.564-.194.799-.406l.077-.074.073-.078c1.047-1.207 2.857-1.32 4.041-.254.083.075.162.155.236.24v-3.908zm0-3.277H13.14v2.691h5.225V8.749z"/>
        </g>
    </g>
</svg>
