<svg xmlns="http://www.w3.org/2000/svg" width="24" height="24" viewBox="0 0 24 24">
    <g fill="none" fill-rule="evenodd">
        <g fill="#000" fill-rule="nonzero">
            <path d="M16.869 4.559c.154 0 .299.071.392.19l.05.077 2.641 5.02 1.898.001c.31 0 .539.277.495.572l-.019.08-2.304 7.198 2.027.875c.253.11.37.404.26.657-.097.226-.34.343-.572.289l-.085-.028-2.18-.943c-.57-.246-1.208-.27-1.792-.073l-.192.073-.988.428c-.819.354-1.738.38-2.572.082l-.206-.082-.989-.428c-.57-.246-1.208-.27-1.792-.073l-.192.073-.989.428c-.818.354-1.738.38-2.571.082l-.207-.082-.988-.428c-.57-.246-1.209-.27-1.793-.073l-.192.073-2.179.943c-.253.11-.548-.007-.657-.26-.098-.226-.016-.484.18-.615l.08-.043 1.665-.72-1.52-4.952c-.09-.295.104-.593.396-.64l.082-.007h1.545l.52-4.777c.024-.226.196-.403.413-.44l.083-.006 7.019-.001.693-2.125c.058-.177.207-.304.385-.337l.09-.008h4.065zm4.295 6.288h-5.492l-.716 2.07c-.06.172-.208.296-.383.328l-.09.008H2.734l1.298 4.226c.705-.203 1.459-.18 2.153.069l.206.082.989.427c.57.246 1.208.271 1.792.074l.192-.074.989-.427c.818-.354 1.738-.381 2.571-.082l.207.082.988.427c.57.246 1.209.271 1.792.074l.193-.074.988-.427c.628-.272 1.316-.351 1.98-.238l2.093-6.545zm-4.598-5.289h-3.398l-.693 2.126c-.057.177-.206.304-.384.337L12 8.03l-6.934-.001-.46 4.224h9.521l.717-2.07c.06-.172.208-.296.383-.328l.09-.008h3.504l-.524-.997H16c-.193 0-.35-.157-.35-.35 0-.17.12-.31.28-.343L16 8.15h1.93l-.302-.572h-2.12c-.193 0-.35-.157-.35-.35 0-.17.12-.31.28-.343l.07-.007h1.751l-.693-1.32zM7.1 9.7c.276 0 .5.224.5.5s-.224.5-.5.5-.5-.224-.5-.5.224-.5.5-.5zm2.2 0c.276 0 .5.224.5.5s-.224.5-.5.5-.5-.224-.5-.5.224-.5.5-.5zm2.2 0c.276 0 .5.224.5.5s-.224.5-.5.5-.5-.224-.5-.5.224-.5.5-.5z"/>
        </g>
    </g>
</svg>
