<svg xmlns="http://www.w3.org/2000/svg" width="24" height="24" viewBox="0 0 24 24">
    <g fill="none" fill-rule="evenodd">
        <g fill="#000" fill-rule="nonzero">
            <path d="M3.466 2.136l.066.013 6.83 2.367-.079-.432c-.035-.191.091-.37.273-.407l.071-.007h1.847c.194 0 .346.157.35.344l-.006.07-.234 1.247L20.6 8.218c.156.056.237.228.18.384-.056.156-.228.236-.383.18l-7.924-2.854-.129.693c-.026.142-.136.25-.274.279l-.07.007h-.137v2.816c.772-1.282 1.55-1.758 2.393-1.288 1.132.63.793 2.227-.683 4.786-.038.067-.092.124-.156.166l-2.004 1.332.547 1.586.198-.018c1.574-.118 2.808.183 3.683.925l.16.144c.243.234.526.472.935.794l.652.51.363.294c.223.188.399.35.544.507.553.596.703 1.204.178 1.713-.589.57-1.305.355-2.527-.366l-.45-.271c-.76-.458-1.015-.587-1.155-.587-.07 0-.162.006-.28.017l-.273.03-1.47.186c-.49.053-.91.083-1.333.09-.66.012-1.25-.037-1.773-.162-1.455-.346-2.53-2.677-3.441-7.038-.055-.262.107-.521.367-.587l4.741-1.195.084-.192V6.906h-.066c-.145 0-.272-.088-.325-.218l-.02-.068-.284-1.539-7.1-2.46c-.13-.045-.2-.187-.154-.318.037-.108.142-.175.252-.167zm10.303 7.172c-.316-.176-.914.446-1.671 2.15l-.193.449c-.06.145-.186.254-.34.293L7.05 13.337l.13.575c.748 3.17 1.59 4.914 2.382 5.202l.082.024c.432.103.94.145 1.523.135.548-.01 1.103-.06 1.846-.156l.689-.091.482-.056c.14-.013.256-.02.357-.02l.071.001c.325.012.56.11 1.256.523l.517.311.434.257c.688.39 1.072.497 1.158.414.02-.02.02-.049-.091-.178l-.124-.137c-.143-.154-.34-.331-.617-.555l-1.221-.966c-.239-.196-.435-.368-.617-.543-.732-.704-1.928-.962-3.622-.735-.236.032-.462-.107-.54-.332l-.803-2.33c-.074-.215.007-.453.196-.58l2.226-1.48.202-.36c.927-1.703 1.13-2.677.843-2.924zM7.5 7.5c1.105 0 2 .895 2 2s-.895 2-2 2-2-.895-2-2 .895-2 2-2zm0 1c-.552 0-1 .448-1 1s.448 1 1 1 1-.448 1-1-.448-1-1-1zm4.552-4.13h-1.004l.339 1.836h.321l.344-1.836z"/>
        </g>
    </g>
</svg>
