<svg xmlns="http://www.w3.org/2000/svg" width="14" height="14" viewBox="0 0 14 14">
    <g fill="none" fill-rule="evenodd">
        <circle cx="7" cy="7" r="7" fill="#CCCDD1"/>
        <path fill="#FFF" fill-rule="nonzero" d="M9.22 4.146c.167-.166.46-.142.655.053.196.195.22.488.053.655l-2.222 2.22 2.222 2.221c.145.146.145.388.012.577l-.065.078c-.195.195-.488.218-.654.052L7 7.781l-2.22 2.221c-.146.146-.389.146-.578.013l-.077-.065c-.196-.196-.22-.489-.053-.655l2.221-2.221-2.22-2.22c-.146-.146-.146-.388-.013-.578l.065-.077c.195-.195.488-.219.654-.053L7 6.367z"/>
    </g>
</svg>
