<svg xmlns="http://www.w3.org/2000/svg" width="24" height="24" viewBox="0 0 24 24">
    <g fill="none" fill-rule="evenodd">
        <path d="M0 0H24V24H0z"/>
        <path fill="#FFF" d="M15.75 6.77v8.116l.099.045 3.651 1.56V8.376L15.75 6.77zm-1.5 8.093V6.711L9.827 8.368l-.077.03v8.153l4.423-1.658.077-.03zm-5.266 3.398c.285.007.572-.038.843-.143l4.872-1.822c.091-.038.187-.053.282-.045.095 0 .19.022.277.06l3.651 1.56c.99.427 2.091-.3 2.091-1.38V8.376c0-.6-.358-1.14-.909-1.38L15.849 5.18c-.265-.113-.547-.173-.83-.18-.286-.008-.573.037-.846.142L9.3 6.966c-.091.037-.185.052-.28.045-.095 0-.19-.015-.279-.06L5.091 5.39C4.101 4.963 3 5.69 3 6.77v8.115c0 .6.358 1.14.909 1.38l4.242 1.815c.264.112.544.172.826.18h.007zm-.734-1.77V8.376l-.099-.045L4.5 6.77v8.115l3.75 1.605z"/>
    </g>
</svg>
