<svg xmlns="http://www.w3.org/2000/svg" width="24" height="24" viewBox="0 0 24 24">
    <g fill="none" fill-rule="evenodd">
        <path d="M0 0H24V24H0z"/>
        <path fill="#FFF" fill-rule="nonzero" d="M10.054 3C6.158 3 3 6.158 3 10.054c0 3.896 3.158 7.054 7.054 7.054 1.685 0 3.232-.59 4.445-1.577l5.255 5.255c.285.285.747.285 1.032 0 .285-.285.285-.747 0-1.032L15.531 14.5c.986-1.213 1.577-2.76 1.577-4.445C17.108 6.158 13.95 3 10.054 3zm0 1.46c3.09 0 5.595 2.504 5.595 5.594 0 3.09-2.505 5.595-5.595 5.595S4.46 13.144 4.46 10.054 6.964 4.46 10.054 4.46z"/>
    </g>
</svg>
