<svg xmlns="http://www.w3.org/2000/svg" width="24" height="24" viewBox="0 0 24 24">
    <g fill="none" fill-rule="evenodd">
        <path d="M0 0H24V24H0z"/>
        <path fill="#000" d="M21.333 2.367c-.256-.256-.67-.256-.926 0l-1.165 1.165c-.11-.03-.223-.047-.336-.048h-6.622c-.347 0-.68.139-.925.384l-8.696 8.69c-.51.512-.51 1.34 0 1.852l6.622 6.621c.511.511 1.34.511 1.85 0l8.692-8.69c.244-.246.38-.58.38-.926V4.794c-.002-.114-.018-.227-.049-.337l1.166-1.165c.258-.253.262-.667.009-.925zM18.9 11.415l-8.69 8.691-6.622-6.622 8.695-8.69h5.696l-1.999 1.999c-.308-.164-.65-.251-1-.253-1.205 0-2.182.977-2.182 2.182s.977 2.183 2.183 2.183c1.205 0 2.182-.978 2.182-2.183-.004-.349-.092-.692-.258-1l2-1.999-.005 5.692zm-3.055-2.693c0 .482-.391.873-.873.873s-.873-.39-.873-.873c0-.482.39-.873.873-.873.232-.001.455.09.62.254.165.164.257.387.257.62h-.004z"/>
    </g>
</svg>
