<svg xmlns="http://www.w3.org/2000/svg" width="24" height="24" viewBox="0 0 24 24">
    <g fill="none" fill-rule="evenodd">
        <g fill="#000">
            <path d="M5.888.16h-4.4c-.663 0-1.2.537-1.2 1.2v4.4c0 .663.537 1.2 1.2 1.2h4.4c.663 0 1.2-.537 1.2-1.2v-4.4c0-.663-.537-1.2-1.2-1.2zm0 5.6h-4.4v-4.4h4.4v4.4zM14.688.16h-4.4c-.663 0-1.2.537-1.2 1.2v4.4c0 .663.537 1.2 1.2 1.2h4.4c.663 0 1.2-.537 1.2-1.2v-4.4c0-.663-.537-1.2-1.2-1.2zm0 5.6h-4.4v-4.4h4.4v4.4zM5.888 8.96h-4.4c-.663 0-1.2.537-1.2 1.2v4.4c0 .663.537 1.2 1.2 1.2h4.4c.663 0 1.2-.537 1.2-1.2v-4.4c0-.663-.537-1.2-1.2-1.2zm0 5.6h-4.4v-4.4h4.4v4.4zM14.688 8.96h-4.4c-.663 0-1.2.537-1.2 1.2v4.4c0 .663.537 1.2 1.2 1.2h4.4c.663 0 1.2-.537 1.2-1.2v-4.4c0-.663-.537-1.2-1.2-1.2zm0 5.6h-4.4v-4.4h4.4v4.4z" transform="translate(4 4)"/>
        </g>
        <path d="M0 0H24V24H0z"/>
    </g>
</svg>
