<svg xmlns="http://www.w3.org/2000/svg" width="24" height="24" viewBox="0 0 24 24">
    <g fill="none" fill-rule="evenodd">
        <path d="M0 0H24V24H0z"/>
        <path fill="#000" fill-rule="nonzero" d="M17.657 3c.426 0 .772.345.772.771V5.07C19.87 5.199 21 6.41 21 7.886V18.17C21 19.734 19.734 21 18.171 21H5.83C4.266 21 3 19.734 3 18.171V7.886C3 6.41 4.13 5.199 5.571 5.069V3.77c0-.426.346-.771.772-.771.426 0 .771.345.771.771v1.286h9.771V3.771c0-.39.29-.713.667-.764zm1.8 8.228H4.542v6.943c0 .71.576 1.286 1.287 1.286H18.17c.71 0 1.286-.575 1.286-1.286v-6.943zM17.644 6.6L6.355 6.599l-.012.001h-.514c-.71 0-1.286.576-1.286 1.286l-.001 1.799h14.915v-1.8c0-.71-.575-1.285-1.286-1.285l-.501-.001-.013.001h-.013z"/>
    </g>
</svg>
