<svg xmlns="http://www.w3.org/2000/svg" width="24" height="24" viewBox="0 0 24 24">
    <g fill="none" fill-rule="evenodd">
        <g>
            <g>
                <path d="M0 0H24V24H0z"/>
                <path fill="#000" fill-rule="nonzero" d="M17.25 9.75c.406 0 .737.323.75.726V17.687l2.47-2.467c.286-.287.747-.293 1.041-.019l.02.019c.286.286.292.747.018 1.041L17.78 20.03c-.026.026-.054.05-.083.072l.083-.072c-.034.034-.071.065-.11.091-.02.013-.041.026-.063.038l-.036.019c-.022.01-.045.02-.069.028l-.028.01c-.027.008-.054.015-.082.02l-.024.004c-.026.004-.053.007-.081.009H17.25l-.091-.005-.01-.001-.095-.02c-.039-.01-.076-.023-.112-.04l-.025-.011c-.025-.013-.049-.026-.072-.041l-.023-.015c-.023-.017-.045-.034-.066-.053l-.017-.015-.02-.018-3.75-3.75c-.292-.293-.292-.768 0-1.06.287-.288.748-.294 1.042-.02l.02.02 2.469 2.47V10.5c0-.415.336-.75.75-.75zm-7.5 7.5c.414 0 .75.335.75.75 0 .406-.323.737-.727.749H4.5c-.414 0-.75-.335-.75-.75 0-.406.323-.737.727-.75H9.75zm1.5-6c.414 0 .75.335.75.75 0 .406-.323.737-.727.749H4.5c-.414 0-.75-.335-.75-.75 0-.406.323-.737.727-.75h6.773zm6-6c.414 0 .75.335.75.75 0 .406-.323.737-.727.749H4.5c-.414 0-.75-.335-.75-.75 0-.406.323-.737.727-.75H17.25z"/>
            </g>
        </g>
    </g>
</svg>
