<svg xmlns="http://www.w3.org/2000/svg" width="24" height="24" viewBox="0 0 24 24">
    <g fill="none" fill-rule="evenodd">
        <g fill="#000">
            <path d="M20.91 6.887h-1.435c-.396 0-.718.321-.718.717 0 .397.322.718.718.718h1.435c.396 0 .717-.321.717-.718 0-.396-.321-.717-.717-.717zM20.828 11.072l-1.435-.957c-.33-.219-.775-.13-.994.201-.22.33-.13.776.2.995l1.435.956c.33.22.776.13.995-.2.22-.33.13-.776-.2-.995zM18.982 5.18c.136 0 .268-.038.383-.11l1.482-.957c.224-.134.358-.379.35-.64-.01-.26-.16-.496-.392-.615-.233-.118-.511-.101-.728.045l-1.482.957c-.272.17-.397.5-.307.808.09.308.373.519.694.516V5.18zM16.127.191h-1.913c-.792 0-1.435.643-1.435 1.435v.043L4.563 4.974c-.203-.572-.743-.955-1.35-.957H1.78c-.792 0-1.435.643-1.435 1.435v4.783c0 .792.643 1.435 1.435 1.435h1.435c.605-.004 1.142-.387 1.344-.957l.885.387c-.05.098-.076.206-.077.316-.027 1.28.686 2.46 1.832 3.032.422.21.887.318 1.358.316.851-.01 1.67-.328 2.305-.894.092-.082.161-.186.201-.302l1.746.77c.136.668.724 1.148 1.406 1.148h1.913c.792 0 1.435-.642 1.435-1.435V1.617C17.556.827 16.916.19 16.127.19zM3.214 10.235H1.779V5.452h1.435v4.783zm9.565 2.63L4.65 9.24V6.461l8.13-3.295v9.7zm-4.94.316c-.57-.28-.955-.833-1.019-1.464l2.87 1.258c-.537.394-1.242.472-1.851.206zm8.288.88h-1.913V1.626h1.913v12.435z" transform="translate(1 4)"/>
        </g>
        <path d="M0 0H24V24H0z"/>
    </g>
</svg>
