<svg xmlns="http://www.w3.org/2000/svg" width="24" height="24" viewBox="0 0 24 24">
    <g fill="none" fill-rule="evenodd">
        <g>
            <g>
                <g>
                    <g>
                        <g>
                            <path d="M0 0H24V24H0z" transform="translate(-330 -17) translate(330 17)"/>
                            <path fill="#000" fill-rule="nonzero" d="M10.99 2.39l-7.5 6.82c-.312.283-.49.686-.49 1.109v8.668c0 .398.158.78.44 1.06.28.282.662.44 1.06.44H9c.828 0 1.5-.672 1.5-1.5v-4.5h3v4.5c0 .828.67 1.5 1.5 1.5h4.5c.398 0 .78-.158 1.06-.44.282-.28.44-.662.44-1.06V10.32c0-.423-.178-.826-.491-1.11l-7.5-6.819c-.573-.52-1.446-.52-2.019 0zM4.5 10.32L12 3.5l7.5 6.819v8.668H15v-4.5c0-.83-.672-1.5-1.5-1.5h-3c-.829 0-1.5.67-1.5 1.5v4.5H4.5V10.32z" transform="translate(-330 -17) translate(330 17)"/>
                        </g>
                    </g>
                </g>
            </g>
        </g>
    </g>
</svg>
