<svg xmlns="http://www.w3.org/2000/svg" width="24" height="24" viewBox="0 0 24 24">
    <g fill="none" fill-rule="evenodd">
        <g>
            <g>
                <g>
                    <g>
                        <path d="M0 0H24V24H0z" transform="translate(-16 -17) translate(16 17)"/>
                        <path fill="#000" fill-rule="nonzero" d="M5.761 4.701l.02.019L12 10.939l6.22-6.22c.293-.292.767-.292 1.06 0 .287.287.293.748.019 1.042l-.019.02L13.061 12l6.22 6.22c.292.293.292.767 0 1.06-.287.287-.748.293-1.042.019l-.02-.019L12 13.061l-6.22 6.22c-.293.292-.767.292-1.06 0-.287-.287-.293-.748-.019-1.042l.019-.02L10.939 12l-6.22-6.22c-.292-.293-.292-.767 0-1.06.287-.287.748-.293 1.042-.019z" transform="translate(-16 -17) translate(16 17)"/>
                    </g>
                </g>
            </g>
        </g>
    </g>
</svg>
