<svg xmlns="http://www.w3.org/2000/svg" width="24" height="24" viewBox="0 0 24 24">
    <g fill="none" fill-rule="evenodd">
        <g fill="#000" transform="translate(3 3)">
            <path d="M9.092.167C4.237.167.302 4.103.302 8.958s3.935 8.79 8.79 8.79c4.855 0 8.79-3.935 8.79-8.79 0-4.855-3.935-8.79-8.79-8.79zm0 16.326c-4.161 0-7.535-3.373-7.535-7.535 0-4.161 3.374-7.535 7.535-7.535s7.535 3.374 7.535 7.535c0 4.162-3.374 7.535-7.535 7.535z"/>
            <path d="M9.301 3.726c-.346 0-.628.28-.628.627v5.861c0 .347.282.628.628.628.347 0 .628-.281.628-.628v-5.86c0-.347-.28-.628-.628-.628z"/>
            <circle cx="9.301" cy="12.516" r="1"/>
        </g>
        <path d="M0 0H24V24H0z"/>
    </g>
</svg>
