<svg xmlns="http://www.w3.org/2000/svg" width="24" height="24" viewBox="0 0 24 24">
    <g fill="none" fill-rule="evenodd">
        <g>
            <g>
                <path d="M0 0H24V24H0z"/>
                <path fill="#000" fill-rule="nonzero" d="M20.25 16.875c.414 0 .75.336.75.75 0 .406-.323.737-.727.75H9c-.414 0-.75-.336-.75-.75 0-.406.324-.737.727-.75H20.25zm-15 0c.414 0 .75.336.75.75 0 .406-.323.737-.727.75H3.75c-.414 0-.75-.336-.75-.75 0-.406.324-.737.727-.75H5.25zm15-5.625c.414 0 .75.336.75.75 0 .406-.323.737-.727.75H9c-.414 0-.75-.336-.75-.75 0-.406.324-.737.727-.75H20.25zm-15 0c.414 0 .75.336.75.75 0 .406-.323.737-.727.75H3.75c-.414 0-.75-.336-.75-.75 0-.406.324-.737.727-.75H5.25zm15-5.625c.414 0 .75.336.75.75 0 .406-.323.737-.727.75H9c-.414 0-.75-.336-.75-.75 0-.406.323-.737.727-.75H20.25zm-15 0c.414 0 .75.336.75.75 0 .406-.323.737-.727.75H3.75c-.414 0-.75-.336-.75-.75 0-.406.323-.737.727-.75H5.25z"/>
            </g>
        </g>
    </g>
</svg>
