<svg xmlns="http://www.w3.org/2000/svg" width="30" height="30" viewBox="0 0 30 30">
    <g fill="none" fill-rule="evenodd">
        <circle cx="15" cy="15" r="15" fill="#000" />
        <path d="M0 0H24V24H0z"/>
        <path transform="translate(3, 3)" fill="#FFF" d="M11.834 4.519c-2.936 0-5.315 2.376-5.315 5.315 0 2.149.957 4.237 2.143 5.976 1.152 1.7 2.473 3.007 3.172 3.645.699-.638 2.02-1.944 3.172-3.645 1.186-1.739 2.143-3.827 2.143-5.976 0-2.939-2.38-5.315-5.315-5.315zM5 9.834C5 6.06 8.06 3 11.834 3c3.775 0 6.834 3.06 6.834 6.834 0 2.582-1.14 4.966-2.406 6.834-1.272 1.868-2.723 3.288-3.456 3.956-.555.501-1.389.501-1.944 0-.733-.668-2.184-2.088-3.456-3.956C6.14 14.8 5 12.416 5 9.834zm6.834-1.519c-.838 0-1.519.684-1.519 1.519 0 .835.68 1.519 1.519 1.519.838 0 1.519-.684 1.519-1.519 0-.835-.68-1.519-1.519-1.519zM8.797 9.834c0-1.678 1.36-3.037 3.037-3.037 1.677 0 3.037 1.359 3.037 3.037s-1.36 3.037-3.037 3.037c-1.677 0-3.037-1.359-3.037-3.037z"/>
    </g>
</svg>
