<svg xmlns="http://www.w3.org/2000/svg" xmlns:xlink="http://www.w3.org/1999/xlink" width="18" height="18" viewBox="0 0 18 18">
  <defs>
    <path id="jnmfodzd6a" d="M3.214 13.5c-.532 0-.964-.403-.964-.9v-1.396c0-.427.323-.796.771-.88l.023-.005c.662-.137 1.135-.684 1.135-1.319 0-.642-.484-1.195-1.157-1.323l-.02-.004c-.44-.092-.752-.456-.752-.877V5.4c0-.497.432-.9.964-.9h11.572c.532 0 .964.403.964.9v1.396c0 .427-.323.796-.771.88l-.023.005c-.662.137-1.135.685-1.135 1.319 0 .642.484 1.195 1.157 1.323l.02.004c.44.092.752.456.752.877V12.6c0 .497-.432.9-.964.9zM6.59 5.399L3.214 5.4v1.395c1.112.212 1.913 1.117 1.929 2.173V9c0 1.07-.806 1.99-1.929 2.205V12.6H6.59V5.399zm8.197.001l-7.197-.001V12.6h7.197v-1.395c-1.123-.214-1.929-1.136-1.929-2.205 0-1.07.806-1.99 1.93-2.205l-.002-.001V5.4z"/>
  </defs>
  <g fill="none" fill-rule="evenodd">
    <g>
      <g>
        <g>
          <g>
            <g transform="translate(-24 -129) translate(0 116) translate(24 13)">
              <path d="M0 0H18V18H0z"/>
              <mask id="ju4i8dzbvb" fill="#fff">
                <use xlink:href="#jnmfodzd6a"/>
              </mask>
              <use fill="#000" fill-rule="nonzero" xlink:href="#jnmfodzd6a"/>
              <g fill="#000" mask="url(#ju4i8dzbvb)">
                <path d="M0 0H18V18H0z"/>
              </g>
            </g>
          </g>
        </g>
      </g>
    </g>
  </g>
</svg>
