<svg xmlns="http://www.w3.org/2000/svg" width="24" height="24" viewBox="0 0 18 18">
    <g fill="none" fill-rule="evenodd">
        <g>
            <g>
                <g>
                    <path d="M0 0H18V18H0z" transform="translate(-202 -113) translate(202 113)"/>
                    <path fill="#000" fill-rule="nonzero" d="M6.188 3.375c2.33 0 4.218 1.889 4.218 4.219 0 1.465-.747 2.756-1.88 3.512 1.268.467 2.385 1.313 3.184 2.45.179.254.118.605-.136.783-.255.179-.605.118-.784-.136-1.054-1.499-2.77-2.39-4.603-2.39-1.832 0-3.549.891-4.602 2.39-.179.254-.53.315-.784.137-.254-.179-.315-.53-.136-.784.799-1.137 1.916-1.982 3.185-2.451-1.134-.755-1.881-2.046-1.881-3.511 0-2.33 1.889-4.219 4.219-4.219zm8.94 1.479c1.069 1.252 1.312 3.01.623 4.506-.334.723-.856 1.32-1.493 1.745 1.269.468 2.386 1.314 3.184 2.45.179.255.118.606-.137.784-.254.179-.605.118-.783-.137-1.042-1.484-2.736-2.373-4.547-2.39h-.055c-.08 0-.155-.016-.224-.046-.025-.01-.048-.023-.071-.037-.16-.099-.268-.276-.268-.479 0-.154.062-.294.163-.396l.024-.022.04-.034.02-.014c.017-.011.035-.022.054-.032l.02-.01c.02-.01.04-.018.06-.025l.03-.009.051-.012.045-.006.038-.002h.017c1.208 0 2.305-.703 2.81-1.8.505-1.096.327-2.386-.457-3.304-.784-.918-2.03-1.296-3.192-.969-.299.084-.61-.09-.694-.389-.084-.299.09-.61.389-.694 1.584-.446 3.284.07 4.353 1.322zM6.188 4.5c-1.71 0-3.094 1.385-3.094 3.094 0 1.708 1.385 3.093 3.094 3.093 1.708 0 3.093-1.385 3.093-3.093 0-1.709-1.385-3.094-3.093-3.094z" transform="translate(-202 -113) translate(202 113)"/>
                </g>
            </g>
        </g>
    </g>
</svg>
