<svg xmlns="http://www.w3.org/2000/svg" width="24" height="24" viewBox="0 0 24 24" style="background:#000">
    <g fill="none" fill-rule="evenodd">
        <g>
            <path fill="#000" d="M0 0H24V24H0z"/>
            <g>
                <path d="M0 0H24V24H0z"/>
                <path fill="#FFF" fill-rule="nonzero" d="M7.484 13.902c.415 0 .75.335.75.75 0 .406-.323.737-.726.75L4.794 15.4l1.903 1.902C8.103 18.71 10.01 19.5 12 19.5c1.99 0 3.897-.79 5.303-2.197.293-.293.768-.293 1.061 0 .293.293.293.768 0 1.061C16.676 20.052 14.387 21 12 21c-2.363 0-4.63-.93-6.313-2.586l-1.953-1.952v2.69c0 .406-.323.737-.726.75h-.024c-.406 0-.737-.324-.75-.727v-4.54l.004-.06-.004.077c0-.047.005-.093.013-.137l.006-.032c.006-.025.013-.05.021-.074l.008-.022c.01-.027.022-.053.035-.078l.009-.016c.033-.061.074-.116.121-.165l.007-.007.02-.019c.019-.017.039-.034.06-.05l-.08.07c.035-.035.071-.066.11-.092.018-.012.036-.023.055-.033l.044-.023c.023-.011.047-.021.072-.03l.018-.006c.028-.01.057-.017.087-.022l.037-.007c.027-.004.055-.006.084-.007h4.523zM12 3c2.363 0 4.63.93 6.313 2.586l1.952 1.952v-2.69c0-.406.324-.737.727-.75h.024c.406 0 .737.324.75.727v4.523l-.001.03-.003.045.004-.075c0 .047-.005.093-.013.137l-.006.032c-.006.025-.013.05-.021.074l-.009.023c-.008.02-.016.041-.026.061l-.02.04-.03.046c-.007.013-.016.025-.025.037-.019.025-.04.05-.062.073l-.008.008-.011.01c-.022.022-.045.04-.068.059l.079-.07c-.035.035-.071.066-.11.092-.018.012-.036.023-.055.033l-.044.023c-.023.011-.047.021-.072.03l-.018.006c-.028.01-.057.017-.087.022l-.037.007c-.027.004-.055.006-.084.007h-4.523c-.415 0-.75-.335-.75-.75 0-.406.323-.737.726-.75h2.712l-1.9-1.901C15.896 5.29 13.988 4.5 12 4.5c-1.99 0-3.897.79-5.303 2.197-.293.293-.768.293-1.061 0-.293-.293-.293-.768 0-1.061C7.324 3.948 9.613 3 12 3z"/>
            </g>
        </g>
    </g>
</svg>
