<svg xmlns="http://www.w3.org/2000/svg" xmlns:xlink="http://www.w3.org/1999/xlink" width="18" height="18" viewBox="0 0 18 18">
  <defs>
    <path id="qhqllfjbya" d="M7.27 0c.566 0 1.027.454 1.037 1.018v3.135h4.155c.566 0 1.027.455 1.038 1.019V12.98c0 .287-.232.519-.52.519-.28 0-.51-.224-.518-.503V5.192H8.307v7.789c0 .287-.232.519-.519.519-.28 0-.51-.224-.519-.503V1.038H1.04v11.943c0 .287-.233.519-.52.519-.281 0-.51-.224-.519-.503V1.038C0 .472.454.011 1.018 0h6.251zM4.672 10.385c.287 0 .52.232.52.519 0 .281-.224.51-.504.519H2.596c-.287 0-.52-.232-.52-.52 0-.28.225-.51.504-.518h2.093zm6.23-1.039c.288 0 .52.233.52.52 0 .28-.224.51-.503.518H9.865c-.286 0-.519-.232-.519-.519 0-.281.224-.51.503-.519h1.055zM5.713 7.788c.286 0 .519.233.519.52 0 .281-.224.51-.503.519H3.635c-.287 0-.52-.233-.52-.52 0-.28.224-.51.503-.518h2.094zm5.192-1.038c.287 0 .52.232.52.52 0 .28-.225.51-.504.518H9.865c-.286 0-.519-.232-.519-.519 0-.281.224-.51.503-.519h1.055zm-6.23-4.154c.286 0 .518.233.518.52 0 .28-.223.51-.503.518H2.596c-.287 0-.52-.232-.52-.519 0-.281.225-.51.504-.519h2.093z"/>
  </defs>
  <g fill="none" fill-rule="evenodd">
    <g>
      <g>
        <path d="M0 0H18V18H0z"/>
        <g transform="translate(2.25 2.25)">
          <mask id="noxeaz7g5b" fill="#fff">
            <use xlink:href="#qhqllfjbya"/>
          </mask>
          <use fill="#000" fill-rule="nonzero" xlink:href="#qhqllfjbya"/>
          <g fill="#000" mask="url(#noxeaz7g5b)">
            <path d="M0 0H18V18H0z" transform="translate(-2.25 -2.25)"/>
          </g>
        </g>
      </g>
    </g>
  </g>
</svg>
