<svg xmlns="http://www.w3.org/2000/svg" width="24" height="24" viewBox="0 0 24 24">
    <g fill="none" fill-rule="evenodd">
        <g>
            <g>
                <g>
                    <g>
                        <g>
                            <path d="M0 0H24V24H0z" transform="translate(-298 -17) translate(298 17)"/>
                            <path fill="#000" fill-rule="nonzero" d="M10.875 2.25c4.763 0 8.625 3.862 8.625 8.625 0 2.112-.76 4.047-2.02 5.546l4.05 4.049c.293.293.293.768 0 1.06-.287.287-.748.293-1.042.019l-.019-.019-4.049-4.049c-1.5 1.26-3.433 2.019-5.545 2.019-4.763 0-8.625-3.862-8.625-8.625S6.112 2.25 10.875 2.25zm0 1.5c-3.935 0-7.125 3.19-7.125 7.125S6.94 18 10.875 18 18 14.81 18 10.875 14.81 3.75 10.875 3.75z" transform="translate(-298 -17) translate(298 17)"/>
                        </g>
                    </g>
                </g>
            </g>
        </g>
    </g>
</svg>
