<svg xmlns="http://www.w3.org/2000/svg" width="16" height="16" viewBox="0 0 16 16">
    <g fill="none" fill-rule="evenodd">
        <g>
            <g>
                <g>
                    <g>
                        <path d="M0 0H16V16H0z" transform="translate(-23 -360) translate(0 345) translate(23 15)"/>
                        <path fill="#000" fill-rule="nonzero" d="M12.243 3.757c2.343 2.344 2.343 6.142 0 8.486-2.344 2.343-6.142 2.343-8.486 0-.195-.196-.195-.512 0-.707.196-.196.512-.196.707 0 1.953 1.952 5.119 1.952 7.072 0 1.952-1.953 1.952-5.119 0-7.072-1.934-1.933-5.056-1.952-7.013-.058l-.059.058-1.268 1.268H4.49c.27 0 .491.216.5.485v.015c0 .271-.216.492-.485.5H1.968c-.014 0-.028-.002-.042-.004l.064.004c-.04 0-.078-.004-.115-.013l-.026-.007c-.017-.005-.034-.01-.05-.018-.013-.005-.026-.01-.04-.018l-.036-.02-.032-.023c-.015-.01-.029-.022-.042-.034l-.013-.013-.009-.009-.038-.045.047.054c-.027-.027-.05-.057-.07-.088-.01-.015-.019-.032-.027-.048l-.012-.029c-.022-.053-.035-.112-.037-.173V3.732c0-.276.223-.5.5-.5.27 0 .491.216.5.485v1.307l1.267-1.267c2.344-2.343 6.142-2.343 8.486 0zM8 4.5c.27 0 .492.215.5.484V7.71l2.348 1.357c.24.138.321.444.183.683-.135.234-.432.318-.668.191l-.015-.008-2.598-1.5-.074-.052-.053-.053-.003-.003-.026-.033c-.026-.036-.047-.076-.063-.118l-.008-.025-.015-.06-.005-.033-.003-.04V5c0-.276.224-.5.5-.5z" transform="translate(-23 -360) translate(0 345) translate(23 15)"/>
                    </g>
                </g>
            </g>
        </g>
    </g>
</svg>
