<svg xmlns="http://www.w3.org/2000/svg" width="24" height="24" viewBox="0 0 24 24">
    <g fill="none" fill-rule="evenodd">
        <g>
            <path d="M0 0H24V24H0z"/>
            <path fill="#000" fill-rule="nonzero" d="M5.25 22.5c-.414 0-.75-.336-.75-.75 0-.406.323-.737.727-.75h4.662c-.754-.67-1.5-1.415-2.205-2.227C5.233 15.954 3.75 12.915 3.75 9.75 3.75 5.194 7.444 1.5 12 1.5s8.25 3.694 8.25 8.25c0 3.165-1.483 6.204-3.934 9.023-.705.812-1.451 1.556-2.205 2.228L18.75 21c.414 0 .75.336.75.75 0 .406-.323.737-.727.75H5.25zM12 3C8.272 3 5.25 6.022 5.25 9.75c0 2.741 1.33 5.468 3.566 8.04.794.912 1.646 1.739 2.498 2.463.234.198.454.378.657.537l.029.022.091-.071c.125-.099.257-.205.393-.319l.139-.116.063-.053c.852-.724 1.704-1.551 2.498-2.464 2.236-2.571 3.566-5.298 3.566-8.039C18.75 6.022 15.728 3 12 3zm0 3c2.071 0 3.75 1.679 3.75 3.75 0 2.071-1.679 3.75-3.75 3.75-2.071 0-3.75-1.679-3.75-3.75C8.25 7.679 9.929 6 12 6zm0 1.5c-1.243 0-2.25 1.007-2.25 2.25S10.757 12 12 12s2.25-1.007 2.25-2.25S13.243 7.5 12 7.5z"/>
        </g>
    </g>
</svg>
