<svg xmlns="http://www.w3.org/2000/svg" width="22" height="22" viewBox="0 0 22 22">
    <g fill="none" fill-rule="evenodd">
        <g>
            <g>
                <g>
                    <path d="M0 0H22V22H0z" transform="translate(-24 -1974) translate(24 1974)"/>
                    <path fill="#FFD641" d="M9.754 3.525c.509-1.033 1.983-1.033 2.492 0l1.802 3.656 4.016.598c1.133.17 1.586 1.559.771 2.363l-2.906 2.87.676 4.037c.19 1.134-1 1.995-2.016 1.46L11 16.62l-3.589 1.888c-1.016.536-2.207-.325-2.016-1.459l.676-4.037-2.906-2.87c-.815-.804-.362-2.194.77-2.363l4.016-.598 1.803-3.656z" transform="translate(-24 -1974) translate(24 1974)"/>
                </g>
            </g>
        </g>
    </g>
</svg>
