<svg xmlns="http://www.w3.org/2000/svg" width="20" height="20" viewBox="0 0 20 20">
    <g fill="none" fill-rule="evenodd" opacity=".227">
        <path d="M0 0H20V20H0z"/>
        <path fill="#000" fill-rule="nonzero" d="M6.016 6.016c.244-.244.64-.244.884 0l3.337 3.338 3.339-3.338c.217-.217.553-.24.797-.072l.086.072c.245.244.245.64 0 .884l-3.338 3.337 3.338 3.339c.217.217.242.553.073.797l-.073.086c-.244.245-.64.245-.883 0l-3.339-3.338L6.9 14.46c-.217.217-.553.242-.797.073l-.087-.073c-.244-.244-.244-.64 0-.883l3.338-3.339L6.016 6.9c-.217-.217-.24-.553-.072-.797z"/>
    </g>
</svg>
