<svg xmlns="http://www.w3.org/2000/svg" width="24" height="24" viewBox="0 0 24 24">
    <g fill="none" fill-rule="evenodd">
        <path d="M0 0H24V24H0z"/>
        <path fill="#000" d="M19.19 3h-.053c-.17 0-.338.034-.496.098l-1.517.506c-3.006.947-6.229.947-9.235 0l-1.522-.51C6.211 3.03 6.044 3 5.877 3h-.045C4.19 3 3 4.138 3 5.667c0 1.169 1.035 2.489 2.327 2.995l.124.05 1.602.537c.866.29 1.754.51 2.655.658-.283.056-.498.29-.531.577-.031.263-.248 2.592.916 3.898.393.44.93.726 1.513.805v5.146c0 .369.297.667.664.667.366 0 .663-.298.663-.667v-5.182c.588-.078 1.128-.365 1.523-.809 1.159-1.298.938-3.6.907-3.858-.027-.234-.175-.437-.39-.533 1.01-.144 2.005-.38 2.974-.702l1.601-.538.124-.049C20.964 8.16 22 6.84 22 5.667c.022-1.53-1.168-2.64-2.81-2.667zm-5.133 7.631c.058.502.071 2.093-.58 2.822-.141.16-.325.276-.53.334V11c0-.368-.297-.667-.664-.667-.367 0-.664.299-.664.667v2.822c-.2-.058-.382-.172-.522-.329-.655-.733-.646-2.315-.588-2.862.03-.272-.11-.534-.35-.662 1.376.192 2.77.214 4.15.067-.18.14-.276.366-.252.595zm5.089-3.187l-1.602.538c-3.271 1.088-6.804 1.088-10.075 0l-1.597-.538c-.916-.32-1.54-1.257-1.54-1.777 0-.858.69-1.334 1.54-1.334l1.597.534c3.28 1.037 6.799 1.037 10.08 0l1.597-.534c.854 0 1.54.476 1.54 1.334.008.515-.624 1.453-1.54 1.777z"/>
    </g>
</svg>
