<svg xmlns="http://www.w3.org/2000/svg" width="24" height="24" viewBox="0 0 24 24">
    <g fill="none" fill-rule="evenodd">
        <path d="M0 0H24V24H0z"/>
        <g fill="#000">
            <path d="M7.239 9.64h.531c.643.825 1.875 1.855 3.235 1.855 1.99 0 3.605-1.614 3.605-3.605 0-1.991-1.614-3.605-3.605-3.605H4C1.94 4.285.293 5.764.293 7.787.276 9.858 1.929 11.557 4 11.597c1.446 0 2.628-1.132 3.238-1.956zm-3.234.672c-1.366 0-2.472-1.106-2.472-2.472.007-.64.274-1.248.741-1.685.467-.437 1.092-.665 1.73-.63h7.005c.639-.035 1.265.193 1.732.631.466.438.734 1.048.74 1.688 0 1.366-1.107 2.472-2.472 2.472-1.13-.065-2.1-.823-2.435-1.903H6.44c-.338 1.078-1.308 1.834-2.435 1.9z" transform="translate(3 3)"/>
            <path d="M18.103 2.225C16.39.338 16.126.165 15.541.165c-.683 0-1.236.553-1.236 1.236v1.648c0 .682.553 1.236 1.236 1.236v7.004s0 4.532-3.708 4.532c-2.711 0-3.33-1.681-3.465-2.472h.58c.342 0 .619-.277.619-.618 0-.342-.277-.618-.618-.618H6.477c-.342 0-.618.276-.618.618 0 .341.276.618.618.618h.646c.174 1.462 1.302 3.708 4.71 3.708 4.944 0 4.944-5.69 4.944-5.768V4.285h.412c.486-.003.925-.29 1.123-.735.197-.444.115-.963-.209-1.325zm-2.562.824V1.4c.152 0 1.648 1.648 1.648 1.648H15.54z" transform="translate(3 3)"/>
            <path d="M11.009 9.847c.341 0 .618-.277.618-.618 0-.342-.277-.618-.618-.618-.49-.03-.912-.357-1.063-.824-.114-.323-.468-.493-.791-.38-.323.115-.493.469-.38.792.32.968 1.215 1.629 2.234 1.648zM4.005 8.61c-.49-.03-.912-.356-1.063-.823-.114-.323-.468-.493-.791-.38-.323.115-.493.469-.38.792.32.968 1.215 1.629 2.234 1.648.341 0 .618-.277.618-.618 0-.342-.277-.618-.618-.618z" transform="translate(3 3)"/>
        </g>
    </g>
</svg>
