<svg xmlns="http://www.w3.org/2000/svg" width="24" height="24" viewBox="0 0 24 24">
    <g fill="none" fill-rule="evenodd">
        <path d="M0 0H24V24H0z"/>
        <path fill="#000" d="M17.29 4.176c-1.6 0-2.998 1.084-3.398 2.634H4.633c-.516.008-.98.316-1.186.788-.207.473-.12 1.022.225 1.407l6.146 6.585c.026.027.057.049.083.075v3.876h-.878c-.363 0-.658.295-.658.659 0 .364.295.659.658.659h3.513c.363 0 .658-.295.658-.659 0-.364-.295-.659-.658-.659h-1.317v-3.595c.198-.07.377-.185.522-.338l4.329-4.64c.39.149.803.226 1.22.228 1.94 0 3.512-1.573 3.512-3.513S19.23 4.171 17.29 4.171v.005zm-6.396 10.413c-.097-.058-.208-.09-.32-.092l-5.94-6.37h12.292l-6.032 6.462zm6.396-4.706h-.193l.79-.847c.344-.385.432-.935.225-1.407s-.67-.78-1.186-.789h-1.642c.438-1.004 1.551-1.532 2.607-1.234 1.055.297 1.73 1.327 1.58 2.413-.151 1.087-1.08 1.895-2.176 1.895l-.005-.031z"/>
    </g>
</svg>
