<svg xmlns="http://www.w3.org/2000/svg" width="24" height="24" viewBox="0 0 24 24">
    <g fill="none" fill-rule="evenodd">
        <path d="M0 0H24V24H0z"/>
        <g fill="#000" transform="translate(4 2)">
            <path d="M14.014 2.075h-3.258C10.261.93 9.133.19 7.886.19 6.64.19 5.513.93 5.018 2.075H1.754C.973 2.075.34 2.708.34 3.489v14.618c0 .782.633 1.415 1.414 1.415h12.26c.782 0 1.415-.633 1.415-1.415V3.49c0-.78-.633-1.414-1.415-1.414zm-6.13-.472c.447-.014.88.157 1.198.472H6.705c.313-.31.739-.48 1.18-.472zm6.13 16.504H1.754V3.49h12.26v14.618z"/>
            <circle cx="4.583" cy="20.229" r="1"/>
            <circle cx="11.185" cy="20.229" r="1"/>
            <path d="M3.169 4.904L4.112 4.904 4.112 16.693 3.169 16.693zM5.998 4.904H6.998V16.692999999999998H5.998zM8.827 4.904H9.827V16.692999999999998H8.827zM11.657 4.904H12.657V16.692999999999998H11.657z"/>
        </g>
    </g>
</svg>
