<svg xmlns="http://www.w3.org/2000/svg" width="24" height="24" viewBox="0 0 24 24">
    <g fill="none" fill-rule="evenodd">
        <path d="M0 0H24V24H0z"/>
        <path fill="#000" d="M22.2 15.707l-1.552-1.94c-.218-.48-.696-.79-1.224-.792h-6.008c.537-.627.832-1.424.833-2.25 0-.949-.545-1.723-1.022-2.412l-.189-.274 8.02-1.035c.372-.047.636-.388.589-.76-.047-.373-.388-.637-.76-.59l-8.438 1.107V6.68c.008-.35.094-.692.252-1.004l7.344-1.944c.233-.061.416-.243.478-.476.063-.233-.003-.481-.173-.652-.17-.171-.418-.238-.652-.177L13.8 3.98c.006-.27-.149-.516-.394-.627-.245-.11-.533-.064-.731.118-.324.311-.611.658-.855 1.035l-.954.252c-.034-.23-.185-.425-.399-.517-.213-.092-.46-.066-.65.067-.346.26-.642.583-.873.95l-1.66.45.081-.603c-.383-.039-.764.083-1.053.337-.2.174-.354.393-.45.64l-1.476.391c-.233.062-.416.243-.478.476-.063.233.003.482.173.653.17.17.418.238.651.176l.986-.261v.103l-.567.072c-.373.024-.656.345-.632.718.023.373.345.656.717.632h.086l1.021-.13c.122.162.252.315.378.45.396.45.743.873.743 1.35 0 .477-.13.675-.176.68h.045l-.18 1.35h.14c.332-.005.651-.127.9-.347.453-.431.693-1.04.657-1.665 0-.986-.563-1.647-1.058-2.25-.383-.349-.642-.813-.738-1.323l1.35-.36v.32c0 .985.563 1.651 1.062 2.25.396.45.738.872.738 1.35 0 .9-.414 1.142-.477 1.174-.339.136-.508.517-.382.86.031.082.079.156.14.22H5.027c-.444 0-.86.219-1.111.585-.036.058-.068.118-.095.18l-1.57 1.962c-.216.269-.194.657.05.9l.9.9c.168.18.421.255.66.194.24-.061.426-.248.487-.487.061-.24-.013-.493-.194-.661l-.472-.473.387-.481 1.948 5.067c.201.52.702.864 1.26.864h9.9c.559 0 1.06-.343 1.26-.864l1.949-5.067.387.481-.473.473c-.18.168-.254.422-.193.66.06.24.247.427.487.488.239.06.492-.013.66-.194l.9-.9c.238-.243.257-.625.045-.891zm-4.5-1.377L14.7 16.58H9.722l-3.46-2.25H17.7zm-7.2-5.85c-.396-.45-.742-.873-.742-1.35 0-.24.04-.477.121-.702l1.287-.342c-.04.195-.063.394-.067.594 0 .95.544 1.723 1.021 2.412.401.571.779 1.116.779 1.638-.007.663-.315 1.287-.837 1.696-.18.127-.288.334-.288.554h-1.233c.691-.534 1.07-1.379 1.008-2.25 0-.986-.563-1.647-1.058-2.25h.01zm6.683 11.7h-9.9l-1.836-4.775 3.721 2.417c.11.071.239.109.37.108h5.4c.146 0 .288-.047.404-.135l3.884-2.912-2.043 5.297z"/>
    </g>
</svg>
