<svg xmlns="http://www.w3.org/2000/svg" width="24" height="24" viewBox="0 0 24 24">
    <g fill="none" fill-rule="evenodd">
        <path d="M0 0H24V24H0z"/>
        <g fill="#000">
            <path d="M17.672 6.1c.005-1.69-.991-3.223-2.538-3.904-1.546-.682-3.35-.383-4.593.762C9.298 4.102 8.85 5.874 9.401 7.47l-2.838 5.052c-.426.758-.293 1.707.325 2.32-.016.025-.034.048-.054.069-.305.183-.674.225-1.013.116-2.617-.448-2.914 1.086-2.926 1.16-.054.314.157.613.472.668h.1c.282 0 .523-.202.572-.48 0 0 .263-.436 1.585-.208.889.155 1.57 0 2.021-.433.067-.065.128-.136.182-.212.794.385 1.749.183 2.32-.491l.022-.027 3.726-4.685c2.15-.242 3.775-2.058 3.777-4.22zm-1.16 0c0 .3-.045.597-.131.884-.143-.072-.31-.082-.46-.027-.913.251-1.889.123-2.706-.355-.993-.522-1.46-2.107-1.546-2.675-.018-.103-.063-.2-.131-.278.933-.714 2.191-.837 3.245-.318 1.055.52 1.723 1.593 1.725 2.768h.004zm-7.259 8.19c-.147.174-.363.274-.591.274-.162 0-1.04-.49-1.16-.827-.077-.213-.057-.449.054-.646l2.478-4.41c.603.78 1.458 1.327 2.42 1.546l-3.2 4.063zM13.42 9.19c-1.075 0-2.072-.56-2.634-1.477-.561-.917-.606-2.06-.118-3.018.232.82.8 2.288 2.025 2.93.731.393 1.547.602 2.377.607.21 0 .42-.014.627-.043-.586.638-1.411 1.001-2.277 1.001z" transform="translate(3 4)"/>
            <path d="M10.649 10.108c-.128-.086-.285-.116-.436-.086-.15.03-.283.12-.368.248l-.773 1.16c-.115.172-.129.393-.037.578.093.186.277.308.484.321.206.013.404-.085.519-.258l.773-1.16c.085-.128.116-.284.085-.435-.03-.15-.12-.283-.247-.368zM4.12 8.426c.015-.05.023-.102.024-.154v-4.14l3.092-2.11v2.844c-.202-.07-.413-.107-.626-.108-.275 0-.547.055-.8.159-.416.164-.767.458-1.002.838-.282.45-.333 1.006-.139 1.5.282.653.933 1.068 1.643 1.047.274 0 .546-.054.8-.158.415-.165.766-.459 1.001-.839.267-.44.278-1.615.278-1.74V.929c0-.215-.119-.411-.308-.512-.19-.1-.419-.088-.596.032l-4.252 2.9c-.159.107-.255.286-.255.479v2.976c-.201-.071-.413-.108-.626-.108-.275 0-.546.054-.8.158-.463.152-.846.482-1.064.918-.217.435-.252.94-.096 1.401.282.653.933 1.068 1.643 1.048.274-.001.546-.055.8-.159.71-.249 1.21-.887 1.283-1.635zM6.68 7.07c-.117.048-.242.073-.368.074-.237.019-.462-.108-.568-.32-.084-.366.137-.731.498-.828.117-.048.242-.073.368-.073.237-.02.461.108.568.32.083.365-.137.73-.499.827zM2.426 9.002c-.116.048-.24.073-.367.074-.237.018-.462-.109-.568-.321-.083-.365.137-.73.499-.827.116-.048.24-.073.367-.074.237-.019.462.108.568.32.083.366-.137.731-.499.828z" transform="translate(3 4)"/>
        </g>
    </g>
</svg>
