<svg xmlns="http://www.w3.org/2000/svg" width="24" height="24" viewBox="0 0 24 24">
    <g fill="none" fill-rule="evenodd">
        <path d="M0 0H24V24H0z"/>
        <path fill="#000" d="M20.556 7.937L17.109 4.49c-.215-.215-.507-.337-.812-.337H7.871c-.304 0-.596.122-.811.337L3.613 7.937c-.42.41-.463 1.07-.1 1.532l7.66 9.957c.217.284.554.45.911.45s.694-.166.912-.45l7.66-9.957c.362-.461.32-1.122-.1-1.532zm-13.6-1.72l1.195 2.149H4.808l2.148-2.149zm7.15 2.149h-4.044l2.022-2.528 2.022 2.528zm.322 1.149l-2.344 7.621L9.74 9.515h4.688zm-5.89 0l2.348 7.633-5.887-7.633h3.539zm7.093 0h3.538l-5.87 7.633 2.332-7.633zm.383-1.149l1.195-2.149 2.148 2.149h-3.343zm.28-3.064l.068.07-1.306 2.347-1.934-2.42 3.171.003zm-5.255 0l-1.934 2.42-1.306-2.347.069-.069 3.17-.004z"/>
    </g>
</svg>
