<svg xmlns="http://www.w3.org/2000/svg" width="24" height="24" viewBox="0 0 24 24">
    <g fill="none" fill-rule="evenodd">
        <path d="M0 0H24V24H0z"/>
        <g fill="#000">
            <path d="M8.525 9.216c1.477 0 2.674-1.197 2.674-2.674 0-1.477-1.197-2.675-2.674-2.675-1.477 0-2.674 1.198-2.674 2.675.002 1.476 1.198 2.672 2.674 2.674zm0-4.114c.795 0 1.44.644 1.44 1.44 0 .795-.645 1.44-1.44 1.44-.795 0-1.44-.645-1.44-1.44 0-.796.645-1.44 1.44-1.44zM7.702 10.45v1.646c0 .34.276.617.617.617.34 0 .617-.276.617-.617V10.45c0-.34-.276-.617-.617-.617-.34 0-.617.276-.617.617zM8.32 3.25c.34 0 .616-.276.616-.617V.987c0-.34-.276-.617-.617-.617-.34 0-.617.277-.617.617v1.646c0 .341.276.617.617.617zM2.765 7.159H4.41c.34 0 .617-.276.617-.617 0-.341-.277-.617-.617-.617H2.765c-.341 0-.617.276-.617.617 0 .34.276.617.617.617zM11.61 6.542c0 .34.277.617.618.617h1.645c.341 0 .618-.276.618-.617 0-.341-.277-.617-.618-.617h-1.645c-.341 0-.617.276-.617.617zM5.118 4.213c.243.227.622.22.857-.015s.242-.614.015-.857L4.826 2.176c-.154-.165-.385-.233-.604-.177-.219.056-.39.227-.445.445-.056.22.012.45.177.605l1.164 1.164zM10.648 8.87c-.24.241-.24.632 0 .873l1.164 1.164c.243.227.622.22.857-.015s.242-.614.015-.857L11.52 8.87c-.24-.24-.631-.24-.872 0zM11.084 4.394c.164 0 .32-.065.436-.181l1.164-1.164c.227-.243.22-.622-.015-.857s-.614-.242-.857-.016l-1.164 1.165c-.177.176-.23.442-.134.672.096.23.32.38.57.381zM5.118 8.87l-1.164 1.165c-.165.154-.233.385-.177.604.055.219.226.39.445.445.219.056.45-.012.604-.177L5.99 9.743c.227-.244.22-.622-.015-.857s-.614-.242-.857-.016z" transform="translate(4 2)"/>
            <path d="M.708 13.783c.312 0 .432.14.744.7.313.559.753 1.357 1.86 1.357 1.107 0 1.563-.823 1.864-1.358.3-.535.411-.7.744-.7.334 0 .432.14.745.7.313.56.753 1.358 1.86 1.358 1.107 0 1.563-.823 1.86-1.358.296-.535.41-.7.744-.7.333 0 .432.14.745.7.313.56.753 1.358 1.864 1.358 1.11 0 1.563-.823 1.86-1.358.295-.535.41-.7.744-.7.34 0 .617-.275.617-.616 0-.341-.276-.617-.617-.617-1.082 0-1.53.822-1.823 1.337-.292.514-.411.72-.781.72-.37 0-.486-.185-.782-.72-.296-.535-.74-1.337-1.823-1.337-1.082 0-1.53.822-1.822 1.337-.292.514-.412.72-.782.72-.37 0-.486-.185-.782-.72-.296-.535-.74-1.337-1.822-1.337s-1.53.822-1.823 1.337c-.292.514-.411.72-.782.72-.37 0-.485-.185-.781-.72-.297-.535-.741-1.337-1.823-1.337-.341 0-.617.276-.617.617 0 .34.276.617.617.617H.708zM16.342 16.251c-1.082 0-1.53.823-1.823 1.338-.292.514-.411.72-.781.72-.37 0-.486-.186-.782-.72-.296-.535-.74-1.338-1.823-1.338-1.082 0-1.53.823-1.822 1.338-.292.514-.412.72-.782.72-.37 0-.486-.186-.782-.72-.296-.535-.74-1.338-1.822-1.338s-1.53.823-1.823 1.338c-.292.514-.411.72-.782.72-.37 0-.485-.186-.781-.72-.297-.535-.741-1.338-1.823-1.338-.341 0-.617.277-.617.618 0 .34.276.617.617.617.313 0 .432.14.745.7.312.559.752 1.357 1.86 1.357 1.106 0 1.563-.823 1.863-1.358.3-.535.411-.7.745-.7.333 0 .432.14.744.7.313.56.753 1.358 1.86 1.358 1.107 0 1.563-.823 1.86-1.358.296-.535.411-.7.744-.7.334 0 .432.14.745.7.313.56.753 1.358 1.864 1.358 1.11 0 1.563-.823 1.86-1.358.296-.535.41-.7.744-.7.341 0 .617-.276.617-.616 0-.341-.276-.618-.617-.618h-.008z" transform="translate(4 2)"/>
        </g>
    </g>
</svg>
