<svg xmlns="http://www.w3.org/2000/svg" width="24" height="24" viewBox="0 0 24 24">
    <g fill="none" fill-rule="evenodd">
        <path d="M0 0H24V24H0z"/>
        <path fill="#000" d="M20.584 20.644L12.617 6.34l1.11-1.998c.118-.2.117-.45 0-.65-.119-.201-.336-.322-.569-.317-.233.005-.445.136-.554.342L11.88 5l-.724-1.285c-.11-.206-.321-.337-.554-.342-.233-.005-.45.116-.568.317-.118.2-.119.45-.001.65l1.11 1.998-7.967 14.305c-.111.2-.108.442.007.639.115.196.326.317.554.317h16.286c.228 0 .439-.12.554-.317.115-.197.118-.44.007-.639zm-9.99-.33v-3.111c0-.649.526-1.174 1.175-1.174h.222c.649 0 1.175.525 1.175 1.174v3.111h-2.572zm3.857 0v-3.111c-.002-1.358-1.102-2.458-2.46-2.46h-.222c-1.358.002-2.458 1.102-2.46 2.46v3.111H4.83L11.88 7.66l7.05 12.655h-4.479z"/>
    </g>
</svg>
