<svg xmlns="http://www.w3.org/2000/svg" width="24" height="24" viewBox="0 0 24 24">
    <g fill="none" fill-rule="evenodd">
        <path d="M0 0H24V24H0z"/>
        <g fill="#000">
            <path fill-rule="nonzero" d="M14.823 9.888c.314.418.239 1.019-.167 1.342-.406.323-.989.246-1.303-.172-.7-.934-1.775-1.49-2.941-1.49-1.17 0-2.247.56-2.946 1.496-.313.42-.896.498-1.302.176-.407-.323-.483-.923-.17-1.342C7.04 8.494 8.66 7.654 10.412 7.654c1.748 0 3.363.836 4.411 2.234zm2.604-2.762c.336.4.295 1.004-.093 1.35-.387.346-.973.304-1.31-.096-1.403-1.665-3.43-2.64-5.612-2.64-2.195 0-4.232.986-5.636 2.669-.334.4-.92.446-1.31.101-.388-.344-.433-.948-.098-1.349 1.752-2.1 4.302-3.334 7.044-3.334 2.726 0 5.263 1.219 7.015 3.3zm2.612-2.733c.345.391.316.997-.063 1.352-.38.355-.967.326-1.312-.065-2.1-2.383-5.067-3.766-8.252-3.766-3.197 0-6.174 1.393-8.274 3.79-.344.393-.93.424-1.312.07-.38-.354-.41-.959-.067-1.351C3.21 1.627 6.684 0 10.412 0c3.714 0 7.179 1.615 9.627 4.393z" transform="translate(2 5)"/>
            <path d="M10.48 11.44c-1.193 0-2.16.967-2.16 2.16s.967 2.16 2.16 2.16 2.16-.967 2.16-2.16c-.003-1.192-.968-2.157-2.16-2.16zm0 2.88c-.398 0-.72-.322-.72-.72 0-.398.322-.72.72-.72.398 0 .72.322.72.72 0 .398-.322.72-.72.72z" transform="translate(2 5)"/>
        </g>
    </g>
</svg>
