<svg xmlns="http://www.w3.org/2000/svg" width="24" height="24" viewBox="0 0 24 24">
    <g fill="none" fill-rule="evenodd">
        <path d="M0 0H24V24H0z"/>
        <path fill="#000" d="M17.773 9.883c-.206.003-.411.018-.615.047l-.104-.403c.02-.093.02-.19 0-.282l-.47-1.878c-.022-.089-.062-.172-.117-.245l-.352-1.408c-.078-.315-.36-.536-.685-.536h-2.818c-.389 0-.704.316-.704.705 0 .389.315.704.704.704h2.268l.07.287c-2.302.275-4.449 1.305-6.104 2.93V7.76c0-.389-.315-.704-.704-.704H5.56c-.389 0-.704.315-.704.704 0 .389.315.704.704.704h1.879v1.625c-1.854-.583-3.876.037-5.084 1.559-1.21 1.521-1.356 3.63-.37 5.305.987 1.674 2.903 2.567 4.82 2.247 1.917-.32 3.438-1.788 3.827-3.692h1.033c.249 0 .48-.133.606-.348 0 0 .394-.671.887-1.488-.38 1.945.501 3.92 2.204 4.935 1.703 1.015 3.86.851 5.39-.41 1.53-1.26 2.104-3.345 1.434-5.21-.67-1.866-2.44-3.11-4.422-3.11l.01.005zm-9.33 2.466c.452.488.745 1.102.84 1.76H7.208c.372-.613.785-1.201 1.235-1.76zm-2.41 5.517c-1.327.002-2.526-.796-3.037-2.022-.51-1.226-.234-2.638.702-3.58.935-.943 2.346-1.23 3.575-.728-.734.924-1.364 1.925-1.878 2.987-.099.218-.08.472.05.673.13.202.354.323.593.322H9.19c-.416 1.395-1.7 2.35-3.155 2.348zm5.232-3.756h-.56c-.109-1.063-.577-2.057-1.328-2.818 1.409-1.465 3.4-2.817 5.917-3.024l.169.681c-.831.335-1.54.915-2.034 1.662-.737 1.1-1.737 2.775-2.164 3.499zm6.508 3.756c-1.492-.002-2.795-1.009-3.174-2.451-.379-1.443.26-2.96 1.559-3.696l.939 3.757c.077.313.358.534.68.535.058.007.117.007.174 0 .182-.045.337-.16.433-.321.096-.16.125-.352.08-.533l-.94-3.808h.268c1.815 0 3.287 1.471 3.287 3.286 0 1.816-1.472 3.287-3.287 3.287l-.02-.056z"/>
    </g>
</svg>
