<svg xmlns="http://www.w3.org/2000/svg" width="24" height="24" viewBox="0 0 24 24">
    <g fill="none" fill-rule="evenodd">
        <path d="M0 0H24V24H0z"/>
        <g fill="#000">
            <path d="M6.543 11.7c-1.418.014-2.589-1.103-2.642-2.52 0-.324-.262-.587-.587-.587-.324 0-.587.263-.587.587.062 2.061 1.753 3.7 3.816 3.694.324 0 .587-.263.587-.587 0-.324-.263-.587-.587-.587z" transform="translate(3 4)"/>
            <path d="M17.597 7.267c-.256-.418-.688-.696-1.174-.756-.442-.03-.883.07-1.268.29V5.236c0-.649-.525-1.174-1.174-1.174H10.46c0-.149.21-.36.414-.564.533-.37.82-1.004.747-1.65-.073-.644-.493-1.198-1.095-1.441-.287-.145-.638-.03-.783.258-.14.286-.03.632.25.783 0 0 .463.25.463.653 0 .149-.212.36-.415.564-.435.339-.71.843-.76 1.393H8.109c0-.149.211-.36.415-.564.532-.37.82-1.004.746-1.65C9.197 1.2 8.776.647 8.174.404c-.287-.145-.637-.029-.782.258-.142.286-.03.632.25.783 0 0 .462.25.462.653 0 .15-.211.36-.415.564-.435.34-.71.843-.759 1.393H5.756c0-.149.211-.36.415-.564.533-.37.82-1.004.747-1.649C6.845 1.196 6.425.642 5.823.399 5.535.255 5.185.37 5.04.657c-.141.286-.03.632.25.783 0 0 .462.25.462.653 0 .15-.211.36-.415.564-.435.34-.71.844-.759 1.393h-3.13c-.649 0-1.174.526-1.174 1.174v2.739c.004 2.823 1.606 5.4 4.136 6.652H3.02c-.323 0-.586.263-.586.587 0 .324.263.587.587.587h9.391c.324 0 .587-.263.587-.587 0-.324-.263-.587-.587-.587h-1.397c.896-.442 1.695-1.06 2.348-1.815.074.03 4.128-2.258 4.516-3.593.198-.656.095-1.367-.282-1.94zm-3.62.716c0 3.457-2.803 6.26-6.26 6.26-3.458 0-6.261-2.803-6.261-6.26v-2.74H5.04c.182.215.404.393.653.525.082.041.172.062.263.062.22 0 .42-.124.52-.32.042-.083.064-.174.063-.267h.853c.182.215.404.393.653.525.081.041.171.062.262.062.22 0 .421-.124.52-.32.043-.083.064-.174.063-.267h.853c.183.215.405.393.654.525.081.041.171.062.262.062.22 0 .42-.124.52-.32.043-.083.064-.174.063-.267h2.74l-.005 2.74zm2.74.782c-.227.783-1.069 1.233-2.348 1.957.446-.912.735-1.42.782-2.493 0 0 .783-.59 1.15-.552.144.021.268.11.333.24.177.247.208.57.083.848z" transform="translate(3 4)"/>
        </g>
    </g>
</svg>
