<svg xmlns="http://www.w3.org/2000/svg" width="24" height="24" viewBox="0 0 24 24">
    <g fill="none" fill-rule="evenodd">
        <path d="M0 0H24V24H0z"/>
        <g fill="#000">
            <path d="M15.212 12.278c-.428-.21-.827-.475-1.186-.789-.182-.164-.383-.379-.593-.607-.799-.858-1.89-2.026-3.518-2.026-1.825 0-2.843 1.018-3.573 1.757-.254.278-.535.53-.84.753-1.25.835-2.436 1.624-2.436 2.966 0 1.994 1.766 4.106 3.436 4.106.625-.032 1.233-.212 1.775-.524.358-.217.76-.35 1.177-.388.485.05.958.184 1.396.397.637.297 1.325.47 2.026.51 2.171-.13 3.864-1.93 3.86-4.106.019-1.223-.949-1.738-1.524-2.049zm-2.336 4.787c-1.031 0-2.163-.913-3.44-.913-1.278 0-2.104.913-2.952.913-.849 0-2.067-1.46-2.067-2.738 0-.493.456-.912 1.825-1.825 1.25-.835 1.77-2.281 3.65-2.281 1.369 0 2.282 1.446 3.194 2.281 1.241 1.127 2.281 1.1 2.281 1.825.006 1.42-1.076 2.61-2.49 2.738zM7.04 8.373h.183c1.4-.123 2.377-1.616 2.222-3.4-.137-1.583-1.072-2.76-2.281-2.943v-.912c0-.378-.307-.685-.685-.685-.378 0-.684.307-.684.685v1.177c-.43.252-.776.625-.995 1.072-.308.638-.435 1.349-.365 2.054.164 1.702 1.255 2.952 2.605 2.952zm-.255-5.02h.064c.602 0 1.145.754 1.232 1.72.086.968-.347 1.862-.977 1.917H7.04c-.602 0-1.145-.753-1.232-1.72-.086-.967.352-1.852.977-1.894v-.022zM19.264 7.483c-.105-.24-.248-.463-.424-.657.27-.5.415-1.057.424-1.624 0-.378-.306-.685-.684-.685-.378 0-.685.307-.685.685-.008.336-.099.665-.264.958-.1-.017-.2-.026-.302-.028-1.14 0-2.14.981-2.377 2.332-.112.602-.045 1.224.192 1.789.272.675.868 1.167 1.583 1.305.115.02.23.031.347.031 1.14 0 2.14-.98 2.377-2.331.11-.597.046-1.214-.187-1.775zm-1.159 1.551c-.123.69-.57 1.2-1.026 1.2h-.11c-.497-.086-.794-.762-.662-1.505.044-.54.402-1.003.913-1.182.154.157.378.225.593.178.29.363.395.84.288 1.291l.004.018zM4.663 10.248c.237-.565.304-1.186.192-1.789-.237-1.368-1.237-2.331-2.377-2.331-.233-.001-.463.04-.68.123-.211-.31-.326-.675-.329-1.05 0-.377-.306-.684-.684-.684-.378 0-.685.307-.685.685.013.691.24 1.363.648 1.92-.07.11-.133.224-.187.343C.324 8.029.258 8.65.37 9.253c.237 1.37 1.236 2.332 2.377 2.332.116 0 .232-.011.347-.032.71-.142 1.3-.633 1.57-1.305zm-1.925-.032c-.457 0-.913-.506-1.027-1.2-.114-.693.164-1.419.662-1.506h.11c.455 0 .912.507 1.026 1.2.114.694-.164 1.42-.662 1.506h-.11zM12.62 8.364h.183c1.369 0 2.46-1.25 2.61-2.97.123-1.402-.456-2.62-1.396-3.14V1.095c0-.378-.307-.684-.685-.684-.378 0-.684.306-.684.684v.913c-1.195.191-2.126 1.368-2.281 2.938-.137 1.802.844 3.294 2.254 3.418zm-.87-3.281c.086-.972.633-1.72 1.245-1.72h.064c.634.055 1.077.912.99 1.92-.087 1.01-.634 1.72-1.246 1.72h-.064c-.634-.058-1.077-.916-.99-1.92z" transform="translate(2 3)"/>
        </g>
    </g>
</svg>
