<svg xmlns="http://www.w3.org/2000/svg" width="24" height="24" viewBox="0 0 24 24">
    <g fill="none" fill-rule="evenodd">
        <path d="M0 0H24V24H0z"/>
        <g fill="#000">
            <path d="M14.64.185H3.563C1.78.185.333 1.63.333 3.415v14.308c0 .765.62 1.385 1.384 1.385h2.77c.596 0 1.126-.38 1.315-.946l.609-1.824h5.39l.61 1.824c.189.565.719.947 1.315.946h2.77c.764 0 1.384-.62 1.384-1.385V3.415c0-.858-.342-1.681-.95-2.287-.607-.607-1.432-.946-2.29-.943zM3.563 1.569H14.64c1.02 0 1.846.827 1.846 1.846V7.57H1.716V3.415c0-1.02.827-1.846 1.847-1.846zm10.154 16.154l-.923-2.77H5.409l-.923 2.77h-2.77v-8.77h14.77v8.77h-2.77z" transform="translate(3 2)"/>
            <path d="M5.178 9.877c-1.147 0-2.076.93-2.076 2.077 0 1.147.93 2.077 2.076 2.077 1.148 0 2.077-.93 2.077-2.077-.002-1.146-.93-2.075-2.077-2.077zm0 2.77c-.382 0-.692-.31-.692-.693 0-.383.31-.692.692-.692.383 0 .693.31.693.692 0 .382-.31.692-.693.692zM13.025 9.877c-1.147 0-2.077.93-2.077 2.077 0 1.147.93 2.077 2.077 2.077 1.147 0 2.077-.93 2.077-2.077-.003-1.146-.931-2.075-2.077-2.077zm0 2.77c-.383 0-.693-.31-.693-.693 0-.383.31-.692.693-.692.382 0 .692.31.692.692 0 .382-.31.692-.692.692z" transform="translate(3 2)"/>
        </g>
    </g>
</svg>
