<svg xmlns="http://www.w3.org/2000/svg" width="24" height="24" viewBox="0 0 24 24">
    <g fill="none" fill-rule="evenodd">
        <path d="M0 0H24V24H0z"/>
        <g fill="#000" transform="translate(2 3)">
            <circle cx="12.925" cy="9.067" r="1"/>
            <circle cx="12.925" cy="11.551" r="1"/>
            <circle cx="14.167" cy="10.309" r="1"/>
            <circle cx="11.683" cy="10.309" r="1"/>
            <path d="M16.78 9.145c0-.103-.046-.128-.088-.265l-.223-.828h-.199c0-.414 0-.136-.029-.153-.71-1.157-1.955-1.878-3.312-1.917-.642-.003-1.277.127-1.867.381-.017-.59-.448-1.088-1.03-1.188.032-.368.637-1.056 2.69-1.056 1.325 0 2.257-.364 2.778-1.089.42-.658.528-1.469.294-2.214-.109-.326-.46-.502-.786-.394-.326.109-.502.461-.394.787.11.366.064.76-.124 1.093-.34.472-1.15.571-1.772.571-3.887 0-3.933 2.186-3.933 2.277-.584.099-1.017.596-1.035 1.188-.588-.252-1.223-.38-1.863-.376-1.875-.002-3.49 1.323-3.854 3.163L.352 14.709l-.054.174v.182c.02 1.593 1.306 2.878 2.898 2.898.521 0 1.032-.144 1.478-.414l.108.05.62-.658 2.899-3.122h2.14l2.525 3.246c.558.616 1.371.936 2.199.865 1.6 0 2.898-1.297 2.898-2.898.037-.149.037-.203-1.284-5.887zM8.991 7.133v-.757h.828v.74l.046.038c-.145.143-.277.298-.394.464h-.136c-.123-.171-.262-.33-.414-.476l.07-.009zm6.21 9.605c-.456.066-.917-.087-1.242-.414l-2.898-3.726H7.75l-3.258 3.519c-.312.393-.786.623-1.288.625-.901-.03-1.626-.754-1.656-1.656l1.702-5.65C3.472 8.15 4.584 7.21 5.887 7.203c1.197 0 2.343.575 2.691 1.656h1.656c.348-1.08 1.495-1.656 2.691-1.656.934.04 1.786.544 2.269 1.345.157.213.257.462.29.725v-.07c.029.082.052.166.07.252 0 0 1.292 5.543 1.292 5.643-.016.898-.745 1.62-1.644 1.627v.012z"/>
            <path d="M6.922 9.688h-.828V8.86c0-.343-.278-.621-.62-.621-.344 0-.622.278-.622.62v.829h-.828c-.343 0-.62.278-.62.62 0 .344.277.622.62.622h.828v.828c0 .343.278.62.621.62.343 0 .621-.277.621-.62v-.828h.828c.343 0 .621-.278.621-.621 0-.343-.278-.621-.62-.621z"/>
        </g>
    </g>
</svg>
