<svg xmlns="http://www.w3.org/2000/svg" width="24" height="24" viewBox="0 0 24 24">
    <g fill="none" fill-rule="evenodd">
        <path d="M0 0H24V24H0z"/>
        <path fill="#000" d="M16.542 12.51c1.109 0 2.328-.608 3.428-1.708 1.865-1.865 2.2-4.021.88-5.359-.522-.526-1.235-.819-1.976-.81-1.113 0-2.323.599-3.41 1.69-1.593 1.593-2.081 3.393-1.368 4.721l-1.99 1.99-2.476-2.478 1.073-1.074c.258-.257.258-.675 0-.932l-3.96-3.96c-.26-.243-.665-.236-.916.016-.252.251-.259.656-.017.916l3.494 3.494-.607.607L4.983 5.91c-.26-.243-.665-.236-.916.016-.252.251-.259.656-.017.916l3.714 3.714-.607.607L3.223 7.23c-.26-.243-.665-.236-.916.016-.252.251-.259.656-.017.916l4.4 4.4c.258.258.676.258.933 0l1.074-1.073 2.477 2.477-5.28 5.28c-.177.165-.25.412-.19.646.06.234.243.417.477.476.233.06.481-.013.646-.19l5.28-5.28 5.17 5.17c.164.177.412.25.646.19.234-.06.416-.242.476-.476.06-.234-.013-.481-.19-.646l-5.17-5.17 1.932-1.932c.462.317 1.011.482 1.571.476zm-.145-5.254c.796-.796 1.707-1.32 2.477-1.32.393-.004.77.156 1.043.44.88.88.321 2.288-.88 3.494-.801.8-1.72 1.32-2.495 1.32-.384.008-.755-.141-1.025-.414-.858-.88-.321-2.319.88-3.52z"/>
    </g>
</svg>
