<svg xmlns="http://www.w3.org/2000/svg" width="24" height="24" viewBox="0 0 17 20">
    <g fill="none" fill-rule="evenodd">
        <path d="M0 0H24V24H0z" transform="translate(-4 -2)"/>
        <path fill="#000" d="M19.848 20.048h-3.525c0-4.23-2.166-7.69-3.98-9.87l-.08-.09c.372-.446.89-.747 1.461-.85 1.603-.277 3.319.996 3.347 1.015.31.218.738.151.967-.151.229-.303.177-.732-.117-.972-.089-.066-2.218-1.655-4.427-1.283-.66.11-1.278.394-1.79.822.728-.86 2.044-1.978 3.76-1.579.378.09.758-.145.848-.524.09-.379-.145-.759-.524-.848-2.012-.47-3.572.47-4.592 1.443.145-1.124.61-2.6 1.978-3.445.327-.208.425-.639.222-.967-.204-.328-.634-.432-.964-.232-2.35 1.462-2.703 4.15-2.717 5.504-2.02-.098-3.984.672-5.4 2.115-.189.175-.266.44-.203.69.064.25.26.445.51.509.249.063.514-.014.69-.203 1.053-1.08 2.494-1.698 4.004-1.715-1.41.592-2.858 1.818-2.858 4.037 0 .39.316.705.705.705.39 0 .705-.316.705-.705 0-1.58 1.095-2.35 1.993-2.736-1.26 2.017-.602 5.081-.569 5.236.085.38.461.62.841.536.38-.084.62-.46.536-.841-.202-.94-.423-3.332.64-4.508 1.654 1.989 3.604 5.123 3.604 8.893H4.808c-.389 0-.705.316-.705.705 0 .39.316.705.705.705h15.04c.39 0 .705-.316.705-.705 0-.39-.315-.705-.705-.705v.014z" transform="translate(-4 -2)"/>
    </g>
</svg>
