<svg xmlns="http://www.w3.org/2000/svg" width="24" height="24" viewBox="0 0 24 24">
    <g fill="none" fill-rule="evenodd">
        <path d="M0 0H24V24H0z"/>
        <g fill="#000">
            <path d="M9.737 3.6c-2.13 0-3.857 1.727-3.857 3.857s1.727 3.857 3.857 3.857 3.857-1.727 3.857-3.857S11.867 3.6 9.737 3.6zm0 6.429c-1.42 0-2.571-1.152-2.571-2.572 0-1.42 1.151-2.571 2.571-2.571 1.42 0 2.572 1.151 2.572 2.571 0 1.42-1.152 2.572-2.572 2.572z" transform="translate(3 3)"/>
            <path d="M17.88 6.814c0-3.724-2.837-6.643-6.454-6.643-.729-.006-1.453.11-2.143.343-.76-.228-1.55-.343-2.344-.343C3.214.171.296 2.996.296 6.6c0 3.043 1.894 5.756 4.521 6.651.892 2.61 3.592 4.492 6.622 4.492 3.604 0 6.428-2.919 6.428-6.643.001-.79-.113-1.578-.338-2.336.235-.623.354-1.284.351-1.95zM16.594 11.1c0 2.957-2.185 5.357-5.143 5.357-2.622 0-5.112-1.766-5.571-4.26C3.39 11.74 1.594 9.223 1.594 6.6c0-2.957 2.4-5.143 5.357-5.143.806-.007 1.606.139 2.358.429.667-.29 1.389-.436 2.117-.429 2.957 0 5.168 2.4 5.168 5.357.007.668-.14 1.327-.428 1.929.29.752.435 1.551.428 2.357z" transform="translate(3 3)"/>
        </g>
    </g>
</svg>
